  0
SECTION
  2
HEADER
  9
$ACADVER
  1
AC1009
  9
$INSBASE
 10
0.0
 20
0.0
 30
0.0
  9
$EXTMIN
 10
3477.1153870594689579
 20
1693.4602499050170081
 30
0.0
  9
$EXTMAX
 10
4320.4754871642544458
 20
2188.9645265734288841
 30
0.0
  9
$LIMMIN
 10
0.0
 20
0.0
  9
$LIMMAX
 10
420.0
 20
297.0
  9
$ORTHOMODE
 70
     0
  9
$REGENMODE
 70
     1
  9
$FILLMODE
 70
     1
  9
$QTEXTMODE
 70
     0
  9
$MIRRTEXT
 70
     0
  9
$DRAGMODE
 70
     2
  9
$LTSCALE
 40
1.0
  9
$OSMODE
 70
   805
  9
$ATTMODE
 70
     1
  9
$TEXTSIZE
 40
2.5
  9
$TRACEWID
 40
1.0
  9
$TEXTSTYLE
  7
STANDARD
  9
$CLAYER
  8
0
  9
$CELTYPE
  6
BYLAYER
  9
$CECOLOR
 62
   256
  9
$DIMSCALE
 40
1.0
  9
$DIMASZ
 40
2.5
  9
$DIMEXO
 40
0.625
  9
$DIMDLI
 40
3.75
  9
$DIMRND
 40
0.0
  9
$DIMDLE
 40
0.0
  9
$DIMEXE
 40
1.25
  9
$DIMTP
 40
0.0
  9
$DIMTM
 40
0.0
  9
$DIMTXT
 40
2.5
  9
$DIMCEN
 40
2.5
  9
$DIMTSZ
 40
0.0
  9
$DIMTOL
 70
     0
  9
$DIMLIM
 70
     0
  9
$DIMTIH
 70
     0
  9
$DIMTOH
 70
     0
  9
$DIMSE1
 70
     0
  9
$DIMSE2
 70
     0
  9
$DIMTAD
 70
     1
  9
$DIMZIN
 70
     8
  9
$DIMBLK
  1

  9
$DIMASO
 70
     1
  9
$DIMSHO
 70
     1
  9
$DIMPOST
  1

  9
$DIMAPOST
  1

  9
$DIMALT
 70
     0
  9
$DIMALTD
 70
     3
  9
$DIMALTF
 40
0.03937007874016
  9
$DIMLFAC
 40
1.0
  9
$DIMTOFL
 70
     1
  9
$DIMTVP
 40
0.0
  9
$DIMTIX
 70
     0
  9
$DIMSOXD
 70
     0
  9
$DIMSAH
 70
     0
  9
$DIMBLK1
  1

  9
$DIMBLK2
  1

  9
$DIMSTYLE
  2
ISO-25
  9
$DIMCLRD
 70
     0
  9
$DIMCLRE
 70
     0
  9
$DIMCLRT
 70
     0
  9
$DIMTFAC
 40
1.0
  9
$DIMGAP
 40
0.625
  9
$LUNITS
 70
     2
  9
$LUPREC
 70
     4
  9
$SKETCHINC
 40
1.0
  9
$FILLETRAD
 40
0.0
  9
$AUNITS
 70
     0
  9
$AUPREC
 70
     0
  9
$MENU
  1
.
  9
$ELEVATION
 40
0.0
  9
$PELEVATION
 40
0.0
  9
$THICKNESS
 40
0.0
  9
$LIMCHECK
 70
     0
  9
$BLIPMODE
 70
     0
  9
$CHAMFERA
 40
0.0
  9
$CHAMFERB
 40
0.0
  9
$SKPOLY
 70
     0
  9
$TDCREATE
 40
2461149.5987847219221294
  9
$TDUPDATE
 40
2461149.6755208331160247
  9
$TDINDWG
 40
0.0766898148
  9
$TDUSRTIMER
 40
0.0766898148
  9
$USRTIMER
 70
     1
  9
$ANGBASE
 50
0.0
  9
$ANGDIR
 70
     0
  9
$PDMODE
 70
     0
  9
$PDSIZE
 40
0.0
  9
$PLINEWID
 40
0.0
  9
$COORDS
 70
     1
  9
$SPLFRAME
 70
     0
  9
$SPLINETYPE
 70
     6
  9
$SPLINESEGS
 70
     8
  9
$ATTDIA
 70
     1
  9
$ATTREQ
 70
     1
  9
$HANDLING
 70
     1
  9
$HANDSEED
  5
D1F
  9
$SURFTAB1
 70
     6
  9
$SURFTAB2
 70
     6
  9
$SURFTYPE
 70
     6
  9
$SURFU
 70
     6
  9
$SURFV
 70
     6
  9
$UCSNAME
  2

  9
$UCSORG
 10
0.0
 20
0.0
 30
0.0
  9
$UCSXDIR
 10
1.0
 20
0.0
 30
0.0
  9
$UCSYDIR
 10
0.0
 20
1.0
 30
0.0
  9
$PUCSNAME
  2

  9
$PUCSORG
 10
0.0
 20
0.0
 30
0.0
  9
$PUCSXDIR
 10
1.0
 20
0.0
 30
0.0
  9
$PUCSYDIR
 10
0.0
 20
1.0
 30
0.0
  9
$USERI1
 70
     0
  9
$USERI2
 70
     0
  9
$USERI3
 70
     0
  9
$USERI4
 70
     0
  9
$USERI5
 70
     0
  9
$USERR1
 40
0.0
  9
$USERR2
 40
0.0
  9
$USERR3
 40
0.0
  9
$USERR4
 40
0.0
  9
$USERR5
 40
0.0
  9
$WORLDVIEW
 70
     1
  9
$SHADEDGE
 70
     3
  9
$SHADEDIF
 70
    70
  9
$TILEMODE
 70
     1
  9
$MAXACTVP
 70
    64
  9
$PLIMCHECK
 70
     0
  9
$PEXTMIN
 10
0.0
 20
0.0
 30
0.0
  9
$PEXTMAX
 10
0.0
 20
0.0
 30
0.0
  9
$PLIMMIN
 10
0.0
 20
0.0
  9
$PLIMMAX
 10
12.0
 20
9.0
  9
$UNITMODE
 70
     0
  9
$VISRETAIN
 70
     1
  9
$PLINEGEN
 70
     0
  9
$PSLTSCALE
 70
     1
  0
ENDSEC
  0
SECTION
  2
TABLES
  0
TABLE
  2
VPORT
 70
     1
  0
VPORT
  2
*ACTIVE
 70
     0
 10
0.0
 20
0.0
 11
1.0
 21
1.0
 12
3643.8567530003938373
 22
2000.99929439593393
 13
0.0
 23
0.0
 14
10.0
 24
10.0
 15
10.0
 25
10.0
 16
0.0
 26
0.0
 36
1.0
 17
0.0
 27
0.0
 37
0.0
 40
821.5607842798425509
 41
2.555259653794939
 42
50.0
 43
0.0
 44
0.0
 50
0.0
 51
0.0
 71
     0
 72
  1000
 73
     1
 74
     3
 75
     0
 76
     1
 77
     0
 78
     0
  0
ENDTAB
  0
TABLE
  2
LTYPE
 70
     1
  0
LTYPE
  2
CONTINUOUS
 70
     0
  3
Solid line
 72
    65
 73
     0
 40
0.0
  0
ENDTAB
  0
TABLE
  2
LAYER
 70
     1
  0
LAYER
  2
0
 70
     0
 62
     7
  6
CONTINUOUS
  0
ENDTAB
  0
TABLE
  2
STYLE
 70
     2
  0
STYLE
  2
STANDARD
 70
     0
 40
0.0
 41
1.0
 50
0.0
 71
     0
 42
2.5
  3
txt
  4

  0
STYLE
  2
ANNOTATIVE
 70
     0
 40
0.0
 41
1.0
 50
0.0
 71
     0
 42
2.5
  3
txt
  4

  0
ENDTAB
  0
TABLE
  2
VIEW
 70
     0
  0
ENDTAB
  0
TABLE
  2
UCS
 70
     0
  0
ENDTAB
  0
TABLE
  2
APPID
 70
     8
  0
APPID
  2
ACAD
 70
     0
  0
APPID
  2
ACAD_PSEXT
 70
     0
  0
APPID
  2
ACADANNOPO
 70
     0
  0
APPID
  2
ACADANNOTATIVE
 70
     0
  0
APPID
  2
ACAD_DSTYLE_DIMJAG
 70
     0
  0
APPID
  2
ACAD_DSTYLE_DIMTALN
 70
     0
  0
APPID
  2
ACAD_MLEADERVER
 70
     0
  0
APPID
  2
ACAD_NAV_VCDISPLAY
 70
     0
  0
ENDTAB
  0
TABLE
  2
DIMSTYLE
 70
     3
  0
DIMSTYLE
  2
STANDARD
 70
     0
  3

  4

  5

  6

  7

 40
1.0
 41
0.18
 42
0.0625
 43
0.38
 44
0.18
 45
0.0
 46
0.0
 47
0.0
 48
0.0
140
0.18
141
0.09
142
0.0
143
25.3999999999999986
144
1.0
145
0.0
146
1.0
147
0.09
 71
     0
 72
     0
 73
     1
 74
     1
 75
     0
 76
     0
 77
     0
 78
     0
170
     0
171
     2
172
     0
173
     0
174
     0
175
     0
176
     0
177
     0
178
     0
  0
DIMSTYLE
  2
ANNOTATIVE
 70
     0
  3

  4

  5

  6

  7

 40
0.0
 41
2.5
 42
0.625
 43
3.75
 44
1.25
 45
0.0
 46
0.0
 47
0.0
 48
0.0
140
2.5
141
2.5
142
0.0
143
0.03937007874016
144
1.0
145
0.0
146
1.0
147
0.625
 71
     0
 72
     0
 73
     0
 74
     0
 75
     0
 76
     0
 77
     1
 78
     8
170
     0
171
     3
172
     1
173
     0
174
     0
175
     0
176
     0
177
     0
178
     0
  0
DIMSTYLE
  2
ISO-25
 70
     0
  3

  4

  5

  6

  7

 40
1.0
 41
2.5
 42
0.625
 43
3.75
 44
1.25
 45
0.0
 46
0.0
 47
0.0
 48
0.0
140
2.5
141
2.5
142
0.0
143
0.03937007874016
144
1.0
145
0.0
146
1.0
147
0.625
 71
     0
 72
     0
 73
     0
 74
     0
 75
     0
 76
     0
 77
     1
 78
     8
170
     0
171
     3
172
     1
173
     0
174
     0
175
     0
176
     0
177
     0
178
     0
  0
ENDTAB
  0
ENDSEC
  0
SECTION
  2
BLOCKS
  0
BLOCK
  8
0
  2
$MODEL_SPACE
 70
     0
 10
0.0
 20
0.0
 30
0.0
  3
$MODEL_SPACE
  1

  0
ENDBLK
  5
21
  8
0
  0
BLOCK
 67
     1
  8
0
  2
$PAPER_SPACE
 70
     0
 10
0.0
 20
0.0
 30
0.0
  3
$PAPER_SPACE
  1

  0
ENDBLK
  5
D5
 67
     1
  8
0
  0
BLOCK
  8
0
  2
A$CB5B6EF54
 70
     0
 10
0.0
 20
0.0
 30
0.0
  3
A$CB5B6EF54
  1

  0
POLYLINE
  5
5CF
  8
0
 66
     1
 10
0.0
 20
0.0
 30
0.0
 70
     1
  0
VERTEX
  5
5D0
  8
0
 10
4.9999999999728528
 20
21.0
 30
0.0
  0
VERTEX
  5
5D1
  8
0
 10
4.9999999999728528
 20
15.5
 30
0.0
  0
VERTEX
  5
5D2
  8
0
 10
0.0
 20
15.5
 30
0.0
  0
VERTEX
  5
5D3
  8
0
 10
0.0000000000000036
 20
5.5000000000000009
 30
0.0
  0
VERTEX
  5
5D4
  8
0
 10
4.9999999999728528
 20
5.5000000000000009
 30
0.0
  0
VERTEX
  5
5D5
  8
0
 10
4.9999999999728528
 20
0.0
 30
0.0
  0
VERTEX
  5
5D6
  8
0
 10
17.6698729810777913
 20
0.0
 30
0.0
  0
VERTEX
  5
5D7
  8
0
 10
17.6698729810777913
 20
5.5000000000000009
 30
0.0
  0
VERTEX
  5
5D8
  8
0
 10
22.0000000000000107
 20
5.5000000000000009
 30
0.0
  0
VERTEX
  5
5D9
  8
0
 10
22.0000000000000107
 20
15.5
 30
0.0
  0
VERTEX
  5
5DA
  8
0
 10
17.6698729810777913
 20
15.5
 30
0.0
  0
VERTEX
  5
5DB
  8
0
 10
17.6698729810777913
 20
21.0
 30
0.0
  0
SEQEND
  5
5DC
  8
0
  0
ENDBLK
  5
5DE
  8
0
  0
ENDSEC
  0
SECTION
  2
ENTITIES
  0
POLYLINE
  5
2CC
  8
0
 66
     1
 10
0.0
 20
0.0
 30
0.0
 70
     1
  0
VERTEX
  5
2CD
  8
0
 10
3903.0131034671849193
 20
1964.3403248571980839
 30
0.0
 42
1.5136058075997509
  0
VERTEX
  5
2CE
  8
0
 10
3911.2914563805038597
 20
1964.2759365528208946
 30
0.0
 42
-0.079926612274538
  0
VERTEX
  5
2CF
  8
0
 10
3909.7544215899361006
 20
2011.9026976991249285
 30
0.0
 42
1.288805516764147
  0
VERTEX
  5
2D0
  8
0
 10
3904.9112908559559401
 20
2011.9403308249679867
 30
0.0
 42
-0.0799033073255894
  0
SEQEND
  5
2D1
  8
0
  0
CIRCLE
  5
2D2
  8
0
 10
3907.1385502155990253
 20
1962.5429130718789565
 30
0.0
 40
2.299999999999998
  0
POLYLINE
  5
331
  8
0
 66
     1
 10
0.0
 20
0.0
 30
0.0
 70
     1
  0
VERTEX
  5
332
  8
0
 10
3894.2198071815550975
 20
2105.2529185140811023
 30
0.0
  0
VERTEX
  5
333
  8
0
 10
3894.2198071815550975
 20
2095.2529185140811023
 30
0.0
  0
VERTEX
  5
334
  8
0
 10
3874.219807181556007
 20
2095.2529185140811023
 30
0.0
  0
VERTEX
  5
335
  8
0
 10
3874.219807181556007
 20
2105.2529185140811023
 30
0.0
  0
VERTEX
  5
336
  8
0
 10
3831.8090348235200508
 20
2105.2529185140811023
 30
0.0
  0
VERTEX
  5
337
  8
0
 10
3831.8090348235200508
 20
2085.2529185140811023
 30
0.0
  0
VERTEX
  5
338
  8
0
 10
3841.8090348235209603
 20
2085.2529185140811023
 30
0.0
  0
VERTEX
  5
339
  8
0
 10
3841.8090348235209603
 20
2080.2529185140811023
 30
0.0
  0
VERTEX
  5
33A
  8
0
 10
3861.8090348235200508
 20
2080.2529185140811023
 30
0.0
  0
VERTEX
  5
33B
  8
0
 10
3861.8090348235200508
 20
2085.2529185140811023
 30
0.0
  0
VERTEX
  5
33C
  8
0
 10
3906.8090348235200508
 20
2085.2529185140811023
 30
0.0
  0
VERTEX
  5
33D
  8
0
 10
3906.8090348235200508
 20
2080.2529185140811023
 30
0.0
  0
VERTEX
  5
33E
  8
0
 10
3926.8090348235200508
 20
2080.2529185140811023
 30
0.0
  0
VERTEX
  5
33F
  8
0
 10
3926.8090348235200508
 20
2085.2529185140811023
 30
0.0
  0
VERTEX
  5
340
  8
0
 10
3936.8090348235200508
 20
2085.2529185140811023
 30
0.0
  0
VERTEX
  5
341
  8
0
 10
3936.8090348235200508
 20
2105.2529185140811023
 30
0.0
  0
SEQEND
  5
342
  8
0
  0
POLYLINE
  5
355
  8
0
 66
     1
 10
0.0
 20
0.0
 30
0.0
 70
     1
  0
VERTEX
  5
356
  8
0
 10
3938.0484534271959092
 20
2076.0377210885380919
 30
0.0
  0
VERTEX
  5
357
  8
0
 10
3833.0484534271968187
 20
2076.0377210885380919
 30
0.0
  0
VERTEX
  5
358
  8
0
 10
3833.0484534271968187
 20
2056.0377210885380919
 30
0.0
  0
VERTEX
  5
359
  8
0
 10
3843.0484534271959092
 20
2056.0377210885380919
 30
0.0
  0
VERTEX
  5
35A
  8
0
 10
3843.0484534271959092
 20
2051.0377210885380919
 30
0.0
  0
VERTEX
  5
35B
  8
0
 10
3863.0484534271968187
 20
2051.0377210885380919
 30
0.0
  0
VERTEX
  5
35C
  8
0
 10
3863.0484534271968187
 20
2056.0377210885380919
 30
0.0
  0
VERTEX
  5
35D
  8
0
 10
3908.0484534271968187
 20
2056.0377210885380919
 30
0.0
  0
VERTEX
  5
35E
  8
0
 10
3908.0484534271968187
 20
2051.0377210885380919
 30
0.0
  0
VERTEX
  5
35F
  8
0
 10
3928.0484534271968187
 20
2051.0377210885380919
 30
0.0
  0
VERTEX
  5
360
  8
0
 10
3928.0484534271968187
 20
2056.0377210885380919
 30
0.0
  0
VERTEX
  5
361
  8
0
 10
3938.0484534271959092
 20
2056.0377210885380919
 30
0.0
  0
SEQEND
  5
362
  8
0
  0
POLYLINE
  5
394
  8
0
 66
     1
 10
0.0
 20
0.0
 30
0.0
 70
     1
  0
VERTEX
  5
395
  8
0
 10
3975.0081069263578684
 20
1994.3518446085629421
 30
0.0
  0
VERTEX
  5
396
  8
0
 10
3975.0081069263578684
 20
1949.753777395671932
 30
0.0
  0
VERTEX
  5
397
  8
0
 10
4017.5081069263569589
 20
1949.753777395671932
 30
0.0
  0
VERTEX
  5
398
  8
0
 10
4017.5081069263569589
 20
2000.0351489671440959
 30
0.0
 42
0.1356251938174891
  0
VERTEX
  5
399
  8
0
 10
3992.5081069263578684
 20
2045.5610051186858982
 30
0.0
  0
VERTEX
  5
39A
  8
0
 10
3992.5081069263578684
 20
2108.055047595672022
 30
0.0
  0
VERTEX
  5
39B
  8
0
 10
3977.0081069263578684
 20
2108.055047595672022
 30
0.0
  0
VERTEX
  5
39C
  8
0
 10
3982.5081069263578684
 20
2098.528768154043064
 30
0.0
  0
VERTEX
  5
39D
  8
0
 10
3951.5081069263578684
 20
2098.528768154043064
 30
0.0
  0
VERTEX
  5
39E
  8
0
 10
3957.0081069263578684
 20
2108.055047595672022
 30
0.0
  0
VERTEX
  5
39F
  8
0
 10
3942.5081069263578684
 20
2108.055047595672022
 30
0.0
  0
VERTEX
  5
3A0
  8
0
 10
3942.5081069263578684
 20
2045.5610051186858982
 30
0.0
 42
0.1348476300372547
  0
VERTEX
  5
3A1
  8
0
 10
3917.5771886195370826
 20
2000.3248289575130912
 30
0.0
  0
VERTEX
  5
3A2
  8
0
 10
3917.5771886195389015
 20
1949.753777395671932
 30
0.0
  0
VERTEX
  5
3A3
  8
0
 10
3960.146270312714023
 20
1949.753777395671932
 30
0.0
  0
VERTEX
  5
3A4
  8
0
 10
3960.146270312714023
 20
1994.7769093012580015
 30
0.0
 42
-0.0746803064193815
  0
VERTEX
  5
3A5
  8
0
 10
3967.5081069263560494
 20
2009.3629098492260709
 30
0.0
 42
-0.0767235708571803
  0
SEQEND
  5
3A6
  8
0
  0
POLYLINE
  5
3A7
  8
0
 66
     1
 10
0.0
 20
0.0
 30
0.0
 70
     1
  0
VERTEX
  5
3A8
  8
0
 10
3985.0081069263578684
 20
2072.055047595672022
 30
0.0
  0
VERTEX
  5
3A9
  8
0
 10
3985.0081069263578684
 20
2093.055047595672022
 30
0.0
  0
VERTEX
  5
3AA
  8
0
 10
3990.0081069263578684
 20
2093.055047595672022
 30
0.0
  0
VERTEX
  5
3AB
  8
0
 10
3990.0081069263578684
 20
2072.055047595672022
 30
0.0
  0
SEQEND
  5
3AC
  8
0
  0
POLYLINE
  5
3AD
  8
0
 66
     1
 10
0.0
 20
0.0
 30
0.0
 70
     1
  0
VERTEX
  5
3AE
  8
0
 10
3950.0081069263578684
 20
2093.055047595672022
 30
0.0
  0
VERTEX
  5
3AF
  8
0
 10
3950.0081069263578684
 20
2073.055047595672022
 30
0.0
  0
VERTEX
  5
3B0
  8
0
 10
3945.0076927263580728
 20
2073.055047595672022
 30
0.0
  0
VERTEX
  5
3B1
  8
0
 10
3945.0076927263580728
 20
2093.055047595672022
 30
0.0
  0
SEQEND
  5
3B2
  8
0
  0
POLYLINE
  5
3B3
  8
0
 66
     1
 10
0.0
 20
0.0
 30
0.0
 70
     1
  0
VERTEX
  5
3B4
  8
0
 10
4015.0081069263578684
 20
1969.753777395671932
 30
0.0
  0
VERTEX
  5
3B5
  8
0
 10
4010.0081069263578684
 20
1969.753777395671932
 30
0.0
  0
VERTEX
  5
3B6
  8
0
 10
4010.0081069263578684
 20
1989.753777395671932
 30
0.0
  0
VERTEX
  5
3B7
  8
0
 10
4015.0081069263578684
 20
1989.753777395671932
 30
0.0
  0
SEQEND
  5
3B8
  8
0
  0
POLYLINE
  5
3B9
  8
0
 66
     1
 10
0.0
 20
0.0
 30
0.0
 70
     1
  0
VERTEX
  5
3BA
  8
0
 10
3925.1462703127131135
 20
1989.753777395671932
 30
0.0
  0
VERTEX
  5
3BB
  8
0
 10
3925.1462703127131135
 20
1969.753777395671932
 30
0.0
  0
VERTEX
  5
3BC
  8
0
 10
3920.1462703127131135
 20
1969.753777395671932
 30
0.0
  0
VERTEX
  5
3BD
  8
0
 10
3920.1462703127131135
 20
1989.753777395671932
 30
0.0
  0
SEQEND
  5
3BE
  8
0
  0
CIRCLE
  5
3BF
  8
0
 10
3941.3701214309548959
 20
1986.343238307287038
 30
0.0
 40
3.0000000000000031
  0
CIRCLE
  5
3C0
  8
0
 10
3993.3701214309548959
 20
1986.343238307287038
 30
0.0
 40
3.0
  0
POLYLINE
  5
3CB
  8
0
 66
     1
 10
0.0
 20
0.0
 30
0.0
 70
     1
  0
VERTEX
  5
3CC
  8
0
 10
3841.1120404991670512
 20
2026.3992533806849679
 30
0.0
  0
VERTEX
  5
3CD
  8
0
 10
3861.1120404991670512
 20
2026.3992533806849679
 30
0.0
  0
VERTEX
  5
3CE
  8
0
 10
3861.1120404991670512
 20
2046.3992533806849679
 30
0.0
  0
VERTEX
  5
3CF
  8
0
 10
3841.1120404991670512
 20
2046.3992533806849679
 30
0.0
  0
SEQEND
  5
3D0
  8
0
  0
POLYLINE
  5
3E7
  8
0
 66
     1
 10
0.0
 20
0.0
 30
0.0
 70
     1
  0
VERTEX
  5
3E8
  8
0
 10
4028.5258155355468261
 20
1989.753777395671932
 30
0.0
  0
VERTEX
  5
3E9
  8
0
 10
4033.5258155355468261
 20
1989.753777395671932
 30
0.0
  0
VERTEX
  5
3EA
  8
0
 10
4033.5258155355468261
 20
1969.753777395671932
 30
0.0
  0
VERTEX
  5
3EB
  8
0
 10
4028.5258155355468261
 20
1969.753777395671932
 30
0.0
  0
VERTEX
  5
3EC
  8
0
 10
4028.5258155355468261
 20
1949.753777395671932
 30
0.0
  0
VERTEX
  5
3ED
  8
0
 10
4036.0258155355468261
 20
1949.753777395671932
 30
0.0
  0
VERTEX
  5
3EE
  8
0
 10
4036.0258155355468261
 20
2000.0351489671440959
 30
0.0
 42
0.1356251938174892
  0
VERTEX
  5
3EF
  8
0
 10
4011.0258155355481904
 20
2045.5610051186858982
 30
0.0
  0
VERTEX
  5
3F0
  8
0
 10
4011.0258155355481904
 20
2108.055047595672022
 30
0.0
  0
VERTEX
  5
3F1
  8
0
 10
4003.5258155355481904
 20
2108.055047595672022
 30
0.0
  0
VERTEX
  5
3F2
  8
0
 10
4003.5258155355481904
 20
2093.055047595672022
 30
0.0
  0
VERTEX
  5
3F3
  8
0
 10
4008.5258155355481904
 20
2093.055047595672022
 30
0.0
  0
VERTEX
  5
3F4
  8
0
 10
4008.5258155355481904
 20
2072.055047595672022
 30
0.0
  0
VERTEX
  5
3F5
  8
0
 10
4003.5258155355481904
 20
2072.055047595672022
 30
0.0
  0
VERTEX
  5
3F6
  8
0
 10
4003.5258155355481904
 20
2042.4425273102278879
 30
0.0
 42
-0.1416767068418836
  0
VERTEX
  5
3F7
  8
0
 10
4028.5258155355468261
 20
1999.1412571210059923
 30
0.0
  0
SEQEND
  5
3F8
  8
0
  0
POLYLINE
  5
40F
  8
0
 66
     1
 10
0.0
 20
0.0
 30
0.0
 70
     1
  0
VERTEX
  5
410
  8
0
 10
4044.6957174244698763
 20
1989.753777395671932
 30
0.0
  0
VERTEX
  5
411
  8
0
 10
4049.6957174244698763
 20
1989.753777395671932
 30
0.0
  0
VERTEX
  5
412
  8
0
 10
4049.6957174244698763
 20
1969.753777395671932
 30
0.0
  0
VERTEX
  5
413
  8
0
 10
4044.6957174244698763
 20
1969.753777395671932
 30
0.0
  0
VERTEX
  5
414
  8
0
 10
4044.6957174244698763
 20
1949.753777395671932
 30
0.0
  0
VERTEX
  5
415
  8
0
 10
4052.1957174244707858
 20
1949.753777395671932
 30
0.0
  0
VERTEX
  5
416
  8
0
 10
4052.1957174244707858
 20
2000.0351489671440959
 30
0.0
 42
0.1356251938174892
  0
VERTEX
  5
417
  8
0
 10
4027.1957174244707858
 20
2045.5610051186858982
 30
0.0
  0
VERTEX
  5
418
  8
0
 10
4027.1957174244707858
 20
2108.055047595672022
 30
0.0
  0
VERTEX
  5
419
  8
0
 10
4019.6957174244707858
 20
2108.055047595672022
 30
0.0
  0
VERTEX
  5
41A
  8
0
 10
4019.6957174244707858
 20
2093.055047595672022
 30
0.0
  0
VERTEX
  5
41B
  8
0
 10
4024.6957174244698763
 20
2093.055047595672022
 30
0.0
  0
VERTEX
  5
41C
  8
0
 10
4024.6957174244698763
 20
2072.055047595672022
 30
0.0
  0
VERTEX
  5
41D
  8
0
 10
4019.6957174244707858
 20
2072.055047595672022
 30
0.0
  0
VERTEX
  5
41E
  8
0
 10
4019.6957174244707858
 20
2042.4425273102278879
 30
0.0
 42
-0.1416767068418836
  0
VERTEX
  5
41F
  8
0
 10
4044.6957174244698763
 20
1999.1412571210059923
 30
0.0
  0
SEQEND
  5
420
  8
0
  0
POLYLINE
  5
437
  8
0
 66
     1
 10
0.0
 20
0.0
 30
0.0
 70
     1
  0
VERTEX
  5
438
  8
0
 10
4060.0886470298942186
 20
1990.4823943952690115
 30
0.0
  0
VERTEX
  5
439
  8
0
 10
4065.0886470298928543
 20
1990.4823943952690115
 30
0.0
  0
VERTEX
  5
43A
  8
0
 10
4065.0886470298928543
 20
1970.4823943952690115
 30
0.0
  0
VERTEX
  5
43B
  8
0
 10
4060.0886470298942186
 20
1970.4823943952690115
 30
0.0
  0
VERTEX
  5
43C
  8
0
 10
4060.0886470298942186
 20
1950.4823943952690115
 30
0.0
  0
VERTEX
  5
43D
  8
0
 10
4067.5886470298942186
 20
1950.4823943952690115
 30
0.0
  0
VERTEX
  5
43E
  8
0
 10
4067.5886470298942186
 20
2000.763765966740948
 30
0.0
 42
0.1356251938174892
  0
VERTEX
  5
43F
  8
0
 10
4042.5886470298928543
 20
2046.2896221182829777
 30
0.0
  0
VERTEX
  5
440
  8
0
 10
4042.5886470298928543
 20
2108.7836645952688741
 30
0.0
  0
VERTEX
  5
441
  8
0
 10
4035.0886470298928543
 20
2108.7836645952688741
 30
0.0
  0
VERTEX
  5
442
  8
0
 10
4035.0886470298928543
 20
2093.7836645952688741
 30
0.0
  0
VERTEX
  5
443
  8
0
 10
4040.0886470298928543
 20
2093.7836645952688741
 30
0.0
  0
VERTEX
  5
444
  8
0
 10
4040.0886470298928543
 20
2072.7836645952688741
 30
0.0
  0
VERTEX
  5
445
  8
0
 10
4035.0886470298928543
 20
2072.7836645952688741
 30
0.0
  0
VERTEX
  5
446
  8
0
 10
4035.0886470298928543
 20
2043.1711443098249674
 30
0.0
 42
-0.1416767068418836
  0
VERTEX
  5
447
  8
0
 10
4060.0886470298942186
 20
1999.8698741206030718
 30
0.0
  0
SEQEND
  5
448
  8
0
  0
POLYLINE
  5
4BA
  8
0
 66
     1
 10
0.0
 20
0.0
 30
0.0
 70
     1
  0
VERTEX
  5
4BB
  8
0
 10
4098.1810768497889512
 20
1990.526734548523109
 30
0.0
  0
VERTEX
  5
4BC
  8
0
 10
4093.1810768497889512
 20
1990.526734548523109
 30
0.0
  0
VERTEX
  5
4BD
  8
0
 10
4093.1810768497889512
 20
1970.5267345485219721
 30
0.0
  0
VERTEX
  5
4BE
  8
0
 10
4098.1810768497889512
 20
1970.5267345485219721
 30
0.0
  0
VERTEX
  5
4BF
  8
0
 10
4098.1810768497889512
 20
1950.5267345485219721
 30
0.0
  0
VERTEX
  5
4C0
  8
0
 10
4090.6810768497889512
 20
1950.5267345485219721
 30
0.0
  0
VERTEX
  5
4C1
  8
0
 10
4090.6810768497889512
 20
2000.8081061199950454
 30
0.0
 42
-0.1356251938174892
  0
VERTEX
  5
4C2
  8
0
 10
4115.6810768497889512
 20
2046.3339622715370751
 30
0.0
  0
VERTEX
  5
4C3
  8
0
 10
4115.6810768497889512
 20
2108.8280047485231989
 30
0.0
  0
VERTEX
  5
4C4
  8
0
 10
4123.1810768497880417
 20
2108.8280047485231989
 30
0.0
  0
VERTEX
  5
4C5
  8
0
 10
4123.1810768497880417
 20
2093.8280047485231989
 30
0.0
  0
VERTEX
  5
4C6
  8
0
 10
4118.1810768497889512
 20
2093.8280047485231989
 30
0.0
  0
VERTEX
  5
4C7
  8
0
 10
4118.1810768497889512
 20
2072.8280047485231989
 30
0.0
  0
VERTEX
  5
4C8
  8
0
 10
4123.1810768497880417
 20
2072.8280047485231989
 30
0.0
  0
VERTEX
  5
4C9
  8
0
 10
4123.1810768497880417
 20
2043.2154844630790649
 30
0.0
 42
0.1416767068418836
  0
VERTEX
  5
4CA
  8
0
 10
4098.1810768497889512
 20
1999.9142142738569419
 30
0.0
  0
SEQEND
  5
4CB
  8
0
  0
POLYLINE
  5
4CC
  8
0
 66
     1
 10
0.0
 20
0.0
 30
0.0
 70
     1
  0
VERTEX
  5
4CD
  8
0
 10
4114.4606700943731994
 20
1988.7051999532959599
 30
0.0
  0
VERTEX
  5
4CE
  8
0
 10
4109.4606700943741089
 20
1988.7051999532959599
 30
0.0
  0
VERTEX
  5
4CF
  8
0
 10
4109.4606700943741089
 20
1968.7051999532959599
 30
0.0
  0
VERTEX
  5
4D0
  8
0
 10
4114.4606700943731994
 20
1968.7051999532959599
 30
0.0
  0
VERTEX
  5
4D1
  8
0
 10
4114.4606700943731994
 20
1948.7051999532959599
 30
0.0
  0
VERTEX
  5
4D2
  8
0
 10
4106.9606700943722899
 20
1948.7051999532959599
 30
0.0
  0
VERTEX
  5
4D3
  8
0
 10
4106.9606700943722899
 20
1998.9865715247678963
 30
0.0
 42
-0.1356251938174892
  0
VERTEX
  5
4D4
  8
0
 10
4131.9606700943731994
 20
2044.512427676309926
 30
0.0
  0
VERTEX
  5
4D5
  8
0
 10
4131.9606700943731994
 20
2107.0064701532960498
 30
0.0
  0
VERTEX
  5
4D6
  8
0
 10
4139.4606700943731994
 20
2107.0064701532960498
 30
0.0
  0
VERTEX
  5
4D7
  8
0
 10
4139.4606700943731994
 20
2092.0064701532960498
 30
0.0
  0
VERTEX
  5
4D8
  8
0
 10
4134.4606700943731994
 20
2092.0064701532960498
 30
0.0
  0
VERTEX
  5
4D9
  8
0
 10
4134.4606700943731994
 20
2071.0064701532960498
 30
0.0
  0
VERTEX
  5
4DA
  8
0
 10
4139.4606700943731994
 20
2071.0064701532960498
 30
0.0
  0
VERTEX
  5
4DB
  8
0
 10
4139.4606700943731994
 20
2041.3939498678519158
 30
0.0
 42
0.1416767068418836
  0
VERTEX
  5
4DC
  8
0
 10
4114.4606700943731994
 20
1998.0926796786300201
 30
0.0
  0
SEQEND
  5
4DD
  8
0
  0
POLYLINE
  5
4DE
  8
0
 66
     1
 10
0.0
 20
0.0
 30
0.0
 70
     1
  0
VERTEX
  5
4DF
  8
0
 10
4081.5668968963868792
 20
1991.6196521441490859
 30
0.0
  0
VERTEX
  5
4E0
  8
0
 10
4076.5668968963868792
 20
1991.6196521441490859
 30
0.0
  0
VERTEX
  5
4E1
  8
0
 10
4076.5668968963868792
 20
1971.6196521441490859
 30
0.0
  0
VERTEX
  5
4E2
  8
0
 10
4081.5668968963868792
 20
1971.6196521441490859
 30
0.0
  0
VERTEX
  5
4E3
  8
0
 10
4081.5668968963868792
 20
1951.6196521441490859
 30
0.0
  0
VERTEX
  5
4E4
  8
0
 10
4074.0668968963868792
 20
1951.6196521441490859
 30
0.0
  0
VERTEX
  5
4E5
  8
0
 10
4074.0668968963868792
 20
2001.9010237156210223
 30
0.0
 42
-0.1356251938174892
  0
VERTEX
  5
4E6
  8
0
 10
4099.066896896387334
 20
2047.426879867163052
 30
0.0
  0
VERTEX
  5
4E7
  8
0
 10
4099.066896896387334
 20
2109.9209223441489485
 30
0.0
  0
VERTEX
  5
4E8
  8
0
 10
4106.5668968963882435
 20
2109.9209223441489485
 30
0.0
  0
VERTEX
  5
4E9
  8
0
 10
4106.5668968963882435
 20
2094.9209223441489485
 30
0.0
  0
VERTEX
  5
4EA
  8
0
 10
4101.566896896387334
 20
2094.9209223441489485
 30
0.0
  0
VERTEX
  5
4EB
  8
0
 10
4101.566896896387334
 20
2073.9209223441489485
 30
0.0
  0
VERTEX
  5
4EC
  8
0
 10
4106.5668968963882435
 20
2073.9209223441489485
 30
0.0
  0
VERTEX
  5
4ED
  8
0
 10
4106.5668968963882435
 20
2044.3084020587050418
 30
0.0
 42
0.1416767068418836
  0
VERTEX
  5
4EE
  8
0
 10
4081.5668968963868792
 20
2001.0071318694829188
 30
0.0
  0
SEQEND
  5
4EF
  8
0
  0
POLYLINE
  5
4FF
  8
0
 66
     1
 10
0.0
 20
0.0
 30
0.0
 70
     1
  0
VERTEX
  5
500
  8
0
 10
4054.1033266282461227
 20
2092.4427111638510723
 30
0.0
  0
VERTEX
  5
501
  8
0
 10
4054.1033266282461227
 20
2052.4427111638510723
 30
0.0
  0
VERTEX
  5
502
  8
0
 10
4084.1033266282461227
 20
2052.4427111638510723
 30
0.0
  0
VERTEX
  5
503
  8
0
 10
4084.1033266282461227
 20
2062.4427111638510723
 30
0.0
  0
VERTEX
  5
504
  8
0
 10
4089.1033266282461227
 20
2062.4427111638510723
 30
0.0
  0
VERTEX
  5
505
  8
0
 10
4089.1033266282461227
 20
2082.4427111638510723
 30
0.0
  0
VERTEX
  5
506
  8
0
 10
4084.1033266282461227
 20
2082.4427111638510723
 30
0.0
  0
VERTEX
  5
507
  8
0
 10
4084.1033266282461227
 20
2092.4427111638510723
 30
0.0
  0
SEQEND
  5
508
  8
0
  0
CIRCLE
  5
509
  8
0
 10
4069.1033266282470322
 20
2072.4427111638510723
 30
0.0
 40
3.5
  0
POLYLINE
  5
533
  8
0
 66
     1
 10
0.0
 20
0.0
 30
0.0
 70
     1
  0
VERTEX
  5
534
  8
0
 10
4053.7386238976250752
 20
2144.1889346130010381
 30
0.0
  0
VERTEX
  5
535
  8
0
 10
4053.7386238976250752
 20
2104.1889346130010381
 30
0.0
  0
VERTEX
  5
536
  8
0
 10
4083.7386238976250752
 20
2104.1889346130010381
 30
0.0
  0
VERTEX
  5
537
  8
0
 10
4083.7386238976250752
 20
2114.1889346130010381
 30
0.0
  0
VERTEX
  5
538
  8
0
 10
4088.7386238976250752
 20
2114.1889346130010381
 30
0.0
  0
VERTEX
  5
539
  8
0
 10
4088.7386238976250752
 20
2134.1889346130010381
 30
0.0
  0
VERTEX
  5
53A
  8
0
 10
4083.7386238976250752
 20
2134.1889346130010381
 30
0.0
  0
VERTEX
  5
53B
  8
0
 10
4083.7386238976250752
 20
2144.1889346130010381
 30
0.0
  0
SEQEND
  5
53C
  8
0
  0
CIRCLE
  5
53D
  8
0
 10
4068.7386238976250752
 20
2124.1889346130010381
 30
0.0
 40
3.5
  0
POLYLINE
  5
554
  8
0
 66
     1
 10
0.0
 20
0.0
 30
0.0
 70
     1
  0
VERTEX
  5
555
  8
0
 10
3873.7688634390219704
 20
2024.3215243156489578
 30
0.0
  0
VERTEX
  5
556
  8
0
 10
3868.7688634390210609
 20
2024.3215243156489578
 30
0.0
  0
VERTEX
  5
557
  8
0
 10
3868.7688634390210609
 20
2017.8215243156480483
 30
0.0
  0
VERTEX
  5
558
  8
0
 10
3874.6556147849701119
 20
2017.8215243156480483
 30
0.0
  0
VERTEX
  5
559
  8
0
 10
3874.6556147849701119
 20
2022.8215243156489578
 30
0.0
  0
VERTEX
  5
55A
  8
0
 10
3884.6556147849701119
 20
2022.8215243156489578
 30
0.0
  0
VERTEX
  5
55B
  8
0
 10
3884.6556147849701119
 20
2017.8215243156480483
 30
0.0
  0
VERTEX
  5
55C
  8
0
 10
3889.7688634390219704
 20
2017.8215243156480483
 30
0.0
  0
VERTEX
  5
55D
  8
0
 10
3889.7688634390219704
 20
2050.8215243156478209
 30
0.0
  0
VERTEX
  5
55E
  8
0
 10
3884.6556147849701119
 20
2050.8215243156478209
 30
0.0
  0
VERTEX
  5
55F
  8
0
 10
3884.6556147849701119
 20
2045.8215243156480483
 30
0.0
  0
VERTEX
  5
560
  8
0
 10
3874.6556147849701119
 20
2045.8215243156480483
 30
0.0
  0
VERTEX
  5
561
  8
0
 10
3874.6556147849701119
 20
2050.8215243156478209
 30
0.0
  0
VERTEX
  5
562
  8
0
 10
3868.7688634390210609
 20
2050.8215243156478209
 30
0.0
  0
VERTEX
  5
563
  8
0
 10
3868.7688634390210609
 20
2044.3215243156480483
 30
0.0
  0
VERTEX
  5
564
  8
0
 10
3873.7688634390219704
 20
2044.3215243156480483
 30
0.0
  0
SEQEND
  5
565
  8
0
  0
POLYLINE
  5
57C
  8
0
 66
     1
 10
0.0
 20
0.0
 30
0.0
 70
     1
  0
VERTEX
  5
57D
  8
0
 10
3876.4748292524600402
 20
1980.50965909211709
 30
0.0
  0
VERTEX
  5
57E
  8
0
 10
3871.4748292524609496
 20
1980.50965909211709
 30
0.0
  0
VERTEX
  5
57F
  8
0
 10
3871.4748292524609496
 20
1974.0096590921159532
 30
0.0
  0
VERTEX
  5
580
  8
0
 10
3877.3615805984090912
 20
1974.0096590921159532
 30
0.0
  0
VERTEX
  5
581
  8
0
 10
3877.3615805984090912
 20
1979.0096590921159532
 30
0.0
  0
VERTEX
  5
582
  8
0
 10
3887.3615805984081817
 20
1979.0096590921159532
 30
0.0
  0
VERTEX
  5
583
  8
0
 10
3887.3615805984081817
 20
1974.0096590921159532
 30
0.0
  0
VERTEX
  5
584
  8
0
 10
3892.4748292524600402
 20
1974.0096590921159532
 30
0.0
  0
VERTEX
  5
585
  8
0
 10
3892.4748292524600402
 20
2007.00965909211709
 30
0.0
  0
VERTEX
  5
586
  8
0
 10
3887.3615805984081817
 20
2007.00965909211709
 30
0.0
  0
VERTEX
  5
587
  8
0
 10
3887.3615805984081817
 20
2002.00965909211709
 30
0.0
  0
VERTEX
  5
588
  8
0
 10
3877.3615805984090912
 20
2002.00965909211709
 30
0.0
  0
VERTEX
  5
589
  8
0
 10
3877.3615805984090912
 20
2007.00965909211709
 30
0.0
  0
VERTEX
  5
58A
  8
0
 10
3871.4748292524609496
 20
2007.00965909211709
 30
0.0
  0
VERTEX
  5
58B
  8
0
 10
3871.4748292524609496
 20
2000.5096590921159532
 30
0.0
  0
VERTEX
  5
58C
  8
0
 10
3876.4748292524600402
 20
2000.5096590921159532
 30
0.0
  0
SEQEND
  5
58D
  8
0
  0
POLYLINE
  5
5A0
  8
0
 66
     1
 10
0.0
 20
0.0
 30
0.0
 70
     1
  0
VERTEX
  5
5A1
  8
0
 10
3844.0783610722378398
 20
2021.7725425526371055
 30
0.0
  0
VERTEX
  5
5A2
  8
0
 10
3844.0783610722378398
 20
2016.2725425526371055
 30
0.0
  0
VERTEX
  5
5A3
  8
0
 10
3839.0783610722651247
 20
2016.2725425526371055
 30
0.0
  0
VERTEX
  5
5A4
  8
0
 10
3839.0783610722651247
 20
2006.2725425526371055
 30
0.0
  0
VERTEX
  5
5A5
  8
0
 10
3844.0783610722378398
 20
2006.2725425526371055
 30
0.0
  0
VERTEX
  5
5A6
  8
0
 10
3844.0783610722378398
 20
2000.7725425526371055
 30
0.0
  0
VERTEX
  5
5A7
  8
0
 10
3856.7482340533429124
 20
2000.7725425526371055
 30
0.0
  0
VERTEX
  5
5A8
  8
0
 10
3856.7482340533429124
 20
2006.2725425526371055
 30
0.0
  0
VERTEX
  5
5A9
  8
0
 10
3861.0783610722651247
 20
2006.2725425526371055
 30
0.0
  0
VERTEX
  5
5AA
  8
0
 10
3861.0783610722651247
 20
2016.2725425526371055
 30
0.0
  0
VERTEX
  5
5AB
  8
0
 10
3856.7482340533429124
 20
2016.2725425526371055
 30
0.0
  0
VERTEX
  5
5AC
  8
0
 10
3856.7482340533429124
 20
2021.7725425526371055
 30
0.0
  0
SEQEND
  5
5AD
  8
0
  0
POLYLINE
  5
5C0
  8
0
 66
     1
 10
0.0
 20
0.0
 30
0.0
 70
     1
  0
VERTEX
  5
5C1
  8
0
 10
3902.5327565506618157
 20
2043.5593289689709309
 30
0.0
  0
VERTEX
  5
5C2
  8
0
 10
3902.5327565506618157
 20
2038.0593289689709309
 30
0.0
  0
VERTEX
  5
5C3
  8
0
 10
3897.5327565506891005
 20
2038.0593289689709309
 30
0.0
  0
VERTEX
  5
5C4
  8
0
 10
3897.5327565506891005
 20
2028.0593289689709309
 30
0.0
  0
VERTEX
  5
5C5
  8
0
 10
3902.5327565506618157
 20
2028.0593289689709309
 30
0.0
  0
VERTEX
  5
5C6
  8
0
 10
3902.5327565506618157
 20
2022.5593289689720677
 30
0.0
  0
VERTEX
  5
5C7
  8
0
 10
3915.2026295317668882
 20
2022.5593289689720677
 30
0.0
  0
VERTEX
  5
5C8
  8
0
 10
3915.2026295317668882
 20
2028.0593289689709309
 30
0.0
  0
VERTEX
  5
5C9
  8
0
 10
3919.5327565506891005
 20
2028.0593289689709309
 30
0.0
  0
VERTEX
  5
5CA
  8
0
 10
3919.5327565506891005
 20
2038.0593289689709309
 30
0.0
  0
VERTEX
  5
5CB
  8
0
 10
3915.2026295317668882
 20
2038.0593289689709309
 30
0.0
  0
VERTEX
  5
5CC
  8
0
 10
3915.2026295317668882
 20
2043.5593289689709309
 30
0.0
  0
SEQEND
  5
5CD
  8
0
  0
POLYLINE
  5
5EB
  8
0
 66
     1
 10
0.0
 20
0.0
 30
0.0
 70
     1
  0
VERTEX
  5
5EC
  8
0
 10
3769.5954297674179543
 20
1916.745924016671097
 30
0.0
  0
VERTEX
  5
5ED
  8
0
 10
3769.5954297674179543
 20
2108.5963321297390394
 30
0.0
  0
VERTEX
  5
5EE
  8
0
 10
3763.5954297674188638
 20
2109.121264110894117
 30
0.0
  0
VERTEX
  5
5EF
  8
0
 10
3763.5954297674188638
 20
2104.6461960920491947
 30
0.0
  0
VERTEX
  5
5F0
  8
0
 10
3739.5954297674179543
 20
2106.7459240166717791
 30
0.0
  0
VERTEX
  5
5F1
  8
0
 10
3739.5954297674179543
 20
1916.745924016671097
 30
0.0
  0
SEQEND
  5
5F2
  8
0
  0
POLYLINE
  5
5FF
  8
0
 66
     1
 10
0.0
 20
0.0
 30
0.0
 70
     1
  0
VERTEX
  5
600
  8
0
 10
3729.7945632450941957
 20
1918.5701775089939929
 30
0.0
  0
VERTEX
  5
601
  8
0
 10
3729.7945632450941957
 20
2110.4205856220619353
 30
0.0
  0
VERTEX
  5
602
  8
0
 10
3723.7945632450941957
 20
2110.9455176032170129
 30
0.0
  0
VERTEX
  5
603
  8
0
 10
3723.7945632450941957
 20
2106.4704495843730001
 30
0.0
  0
VERTEX
  5
604
  8
0
 10
3699.7945632450941957
 20
2108.5701775089951298
 30
0.0
  0
VERTEX
  5
605
  8
0
 10
3699.7945632450941957
 20
1918.5701775089939929
 30
0.0
  0
SEQEND
  5
606
  8
0
  0
POLYLINE
  5
612
  8
0
 66
     1
 10
0.0
 20
0.0
 30
0.0
 70
     1
  0
VERTEX
  5
613
  8
0
 10
3779.4121300997207982
 20
1967.706986891113047
 30
0.0
  0
VERTEX
  5
614
  8
0
 10
3799.4121300997207982
 20
1967.706986891113047
 30
0.0
  0
VERTEX
  5
615
  8
0
 10
3799.4121300997207982
 20
1987.706986891113047
 30
0.0
  0
VERTEX
  5
616
  8
0
 10
3779.4121300997207982
 20
1987.706986891113047
 30
0.0
  0
SEQEND
  5
617
  8
0
  0
POLYLINE
  5
623
  8
0
 66
     1
 10
0.0
 20
0.0
 30
0.0
 70
     1
  0
VERTEX
  5
624
  8
0
 10
3805.311840475173085
 20
1967.706986891113047
 30
0.0
  0
VERTEX
  5
625
  8
0
 10
3825.311840475173085
 20
1967.706986891113047
 30
0.0
  0
VERTEX
  5
626
  8
0
 10
3825.311840475173085
 20
1987.706986891113047
 30
0.0
  0
VERTEX
  5
627
  8
0
 10
3805.311840475173085
 20
1987.706986891113047
 30
0.0
  0
SEQEND
  5
628
  8
0
  0
POLYLINE
  5
634
  8
0
 66
     1
 10
0.0
 20
0.0
 30
0.0
 70
     1
  0
VERTEX
  5
635
  8
0
 10
3779.0255750956280281
 20
1941.0557410439209889
 30
0.0
  0
VERTEX
  5
636
  8
0
 10
3799.0255750956280281
 20
1941.0557410439209889
 30
0.0
  0
VERTEX
  5
637
  8
0
 10
3799.0255750956280281
 20
1961.0557410439209889
 30
0.0
  0
VERTEX
  5
638
  8
0
 10
3779.0255750956280281
 20
1961.0557410439209889
 30
0.0
  0
SEQEND
  5
639
  8
0
  0
POLYLINE
  5
66C
  8
0
 66
     1
 10
0.0
 20
0.0
 30
0.0
 70
     1
  0
VERTEX
  5
66D
  8
0
 10
3815.4472540037818362
 20
2082.8079403125698263
 30
0.0
  0
VERTEX
  5
66E
  8
0
 10
3815.4472540037818362
 20
2075.8079403125698263
 30
0.0
  0
VERTEX
  5
66F
  8
0
 10
3810.4472540037832005
 20
2075.8079403125698263
 30
0.0
  0
VERTEX
  5
670
  8
0
 10
3810.4472540037832005
 20
2082.8079403125698263
 30
0.0
  0
SEQEND
  5
671
  8
0
  0
POLYLINE
  5
672
  8
0
 66
     1
 10
0.0
 20
0.0
 30
0.0
 70
     1
  0
VERTEX
  5
673
  8
0
 10
3796.4472540037832005
 20
2082.8079403125698263
 30
0.0
  0
VERTEX
  5
674
  8
0
 10
3796.4472540037832005
 20
2075.8079403125698263
 30
0.0
  0
VERTEX
  5
675
  8
0
 10
3791.4472540037818362
 20
2075.8079403125698263
 30
0.0
  0
VERTEX
  5
676
  8
0
 10
3791.4472540037818362
 20
2082.8079403125698263
 30
0.0
  0
SEQEND
  5
677
  8
0
  0
POLYLINE
  5
678
  8
0
 66
     1
 10
0.0
 20
0.0
 30
0.0
 70
     1
  0
VERTEX
  5
679
  8
0
 10
3820.9472540037818362
 20
2031.8979403125711087
 30
0.0
  0
VERTEX
  5
67A
  8
0
 10
3825.9472540037832005
 20
2031.8979403125711087
 30
0.0
  0
VERTEX
  5
67B
  8
0
 10
3825.9472540037832005
 20
2010.8979403125699719
 30
0.0
  0
VERTEX
  5
67C
  8
0
 10
3820.9472540037818362
 20
2010.8979403125699719
 30
0.0
  0
SEQEND
  5
67D
  8
0
  0
POLYLINE
  5
67E
  8
0
 66
     1
 10
0.0
 20
0.0
 30
0.0
 70
     1
  0
VERTEX
  5
67F
  8
0
 10
3820.9472540037818362
 20
2095.8979403125708814
 30
0.0
  0
VERTEX
  5
680
  8
0
 10
3825.9472540037832005
 20
2095.8979403125708814
 30
0.0
  0
VERTEX
  5
681
  8
0
 10
3825.9472540037832005
 20
2074.8979403125699719
 30
0.0
  0
VERTEX
  5
682
  8
0
 10
3820.9472540037818362
 20
2074.8979403125699719
 30
0.0
  0
SEQEND
  5
683
  8
0
  0
POLYLINE
  5
684
  8
0
 66
     1
 10
0.0
 20
0.0
 30
0.0
 70
     1
  0
VERTEX
  5
685
  8
0
 10
3780.9472540037832005
 20
2031.8979403125711087
 30
0.0
  0
VERTEX
  5
686
  8
0
 10
3785.9472540037818362
 20
2031.8979403125711087
 30
0.0
  0
VERTEX
  5
687
  8
0
 10
3785.9472540037818362
 20
2010.8979403125699719
 30
0.0
  0
VERTEX
  5
688
  8
0
 10
3780.9472540037832005
 20
2010.8979403125699719
 30
0.0
  0
SEQEND
  5
689
  8
0
  0
POLYLINE
  5
68A
  8
0
 66
     1
 10
0.0
 20
0.0
 30
0.0
 70
     1
  0
VERTEX
  5
68B
  8
0
 10
3780.9472540037832005
 20
2095.8979403125708814
 30
0.0
  0
VERTEX
  5
68C
  8
0
 10
3785.9472540037818362
 20
2095.8979403125708814
 30
0.0
  0
VERTEX
  5
68D
  8
0
 10
3785.9472540037818362
 20
2074.8979403125699719
 30
0.0
  0
VERTEX
  5
68E
  8
0
 10
3780.9472540037832005
 20
2074.8979403125699719
 30
0.0
  0
SEQEND
  5
68F
  8
0
  0
POLYLINE
  5
690
  8
0
 66
     1
 10
0.0
 20
0.0
 30
0.0
 70
     1
  0
VERTEX
  5
691
  8
0
 10
3828.4472540037832005
 20
2105.8979403125708814
 30
0.0
  0
VERTEX
  5
692
  8
0
 10
3778.4472540037832005
 20
2105.8979403125708814
 30
0.0
  0
VERTEX
  5
693
  8
0
 10
3778.4472540037832005
 20
2000.8979403125711087
 30
0.0
  0
VERTEX
  5
694
  8
0
 10
3793.4472540037818362
 20
2000.8979403125711087
 30
0.0
  0
VERTEX
  5
695
  8
0
 10
3788.4472540037832005
 20
1992.237686274726002
 30
0.0
  0
VERTEX
  5
696
  8
0
 10
3818.4472540037818362
 20
1992.237686274726002
 30
0.0
  0
VERTEX
  5
697
  8
0
 10
3813.4472540037832005
 20
2000.8979403125711087
 30
0.0
  0
VERTEX
  5
698
  8
0
 10
3828.4472540037832005
 20
2000.8979403125711087
 30
0.0
  0
SEQEND
  5
699
  8
0
  0
POLYLINE
  5
6CE
  8
0
 66
     1
 10
0.0
 20
0.0
 30
0.0
 70
     1
  0
VERTEX
  5
6CF
  8
0
 10
3670.5066273355628255
 20
1918.8624618293611093
 30
0.0
  0
VERTEX
  5
6D0
  8
0
 10
3690.506627335561916
 20
1918.8624618293611093
 30
0.0
  0
VERTEX
  5
6D1
  8
0
 10
3690.506627335561916
 20
2128.8624618293620188
 30
0.0
  0
VERTEX
  5
6D2
  8
0
 10
3684.6066273355631893
 20
2128.8624618293620188
 30
0.0
  0
VERTEX
  5
6D3
  8
0
 10
3684.6066273355631893
 20
2119.0684943693631794
 30
0.0
  0
VERTEX
  5
6D4
  8
0
 10
3670.5066273355628255
 20
2119.5608772191958451
 30
0.0
  0
SEQEND
  5
6D5
  8
0
  0
POLYLINE
  5
6E2
  8
0
 66
     1
 10
0.0
 20
0.0
 30
0.0
 70
     1
  0
VERTEX
  5
6E3
  8
0
 10
3640.5281283710792195
 20
1920.9719375003699042
 30
0.0
  0
VERTEX
  5
6E4
  8
0
 10
3660.528128371080129
 20
1920.9719375003699042
 30
0.0
  0
VERTEX
  5
6E5
  8
0
 10
3660.528128371080129
 20
2130.9719375003701316
 30
0.0
  0
VERTEX
  5
6E6
  8
0
 10
3654.6281283710791286
 20
2130.9719375003701316
 30
0.0
  0
VERTEX
  5
6E7
  8
0
 10
3654.6281283710791286
 20
2121.1779700403708375
 30
0.0
  0
VERTEX
  5
6E8
  8
0
 10
3640.5281283710792195
 20
2121.6703528902048674
 30
0.0
  0
SEQEND
  5
6E9
  8
0
  0
POLYLINE
  5
74B
  8
0
 66
     1
 10
0.0
 20
0.0
 30
0.0
 70
     1
  0
VERTEX
  5
74C
  8
0
 10
3835.5520760169279129
 20
1942.8793114153329498
 30
0.0
 42
1.5136058075997509
  0
VERTEX
  5
74D
  8
0
 10
3843.8304289302459438
 20
1942.8149231109568973
 30
0.0
 42
-0.079926612274538
  0
VERTEX
  5
74E
  8
0
 10
3842.2933941396781847
 20
1990.4416842572600217
 30
0.0
 42
1.288805516764147
  0
VERTEX
  5
74F
  8
0
 10
3837.4502634056989336
 20
1990.4793173831039894
 30
0.0
 42
-0.0799033073255894
  0
SEQEND
  5
750
  8
0
  0
CIRCLE
  5
751
  8
0
 10
3839.6775227653420188
 20
1941.0818996300149593
 30
0.0
 40
2.299999999999998
  0
POLYLINE
  5
7DF
  8
0
 66
     1
 10
0.0
 20
0.0
 30
0.0
 70
     1
  0
VERTEX
  5
7E0
  8
0
 10
3560.2177788234548643
 20
2174.413215501770992
 30
0.0
  0
VERTEX
  5
7E1
  8
0
 10
3560.2177788234548643
 20
1919.2102155017710174
 30
0.0
  0
VERTEX
  5
7E2
  8
0
 10
3580.7177788234548643
 20
1919.2102155017710174
 30
0.0
 42
-0.4142135623730951
  0
VERTEX
  5
7E3
  8
0
 10
3582.7177788234548643
 20
1917.2102155017710174
 30
0.0
  0
VERTEX
  5
7E4
  8
0
 10
3582.7177788234548643
 20
1908.2102155017710174
 30
0.0
  0
VERTEX
  5
7E5
  8
0
 10
3607.7177788234548643
 20
1908.2102155017710174
 30
0.0
  0
VERTEX
  5
7E6
  8
0
 10
3607.7177788234548643
 20
1917.2102155017710174
 30
0.0
 42
-0.4142135623730951
  0
VERTEX
  5
7E7
  8
0
 10
3609.7177788234548643
 20
1919.2102155017710174
 30
0.0
  0
VERTEX
  5
7E8
  8
0
 10
3630.2177788234548643
 20
1919.2102155017710174
 30
0.0
  0
VERTEX
  5
7E9
  8
0
 10
3630.2177788234548643
 20
2174.413215501770992
 30
0.0
  0
VERTEX
  5
7EA
  8
0
 10
3609.7177788234548643
 20
2174.413215501770992
 30
0.0
 42
-0.4142135623730951
  0
VERTEX
  5
7EB
  8
0
 10
3607.7177788234548643
 20
2176.413215501770992
 30
0.0
  0
VERTEX
  5
7EC
  8
0
 10
3607.7177788234548643
 20
2185.413215501770992
 30
0.0
  0
VERTEX
  5
7ED
  8
0
 10
3582.7177788234548643
 20
2185.413215501770992
 30
0.0
  0
VERTEX
  5
7EE
  8
0
 10
3582.7177788234548643
 20
2176.413215501770992
 30
0.0
 42
-0.4142135623730951
  0
VERTEX
  5
7EF
  8
0
 10
3580.7177788234548643
 20
2174.413215501770992
 30
0.0
  0
SEQEND
  5
7F0
  8
0
  0
POLYLINE
  5
811
  8
0
 66
     1
 10
0.0
 20
0.0
 30
0.0
 70
     1
  0
VERTEX
  5
812
  8
0
 10
3551.5848492139339214
 20
1917.5670982425729107
 30
0.0
  0
VERTEX
  5
813
  8
0
 10
3551.5848492139339214
 20
2172.5670982425731381
 30
0.0
  0
VERTEX
  5
814
  8
0
 10
3531.0848492139348309
 20
2172.5670982425731381
 30
0.0
 42
-0.4142135623730951
  0
VERTEX
  5
815
  8
0
 10
3529.0848492139339214
 20
2174.5670982425731381
 30
0.0
  0
VERTEX
  5
816
  8
0
 10
3529.0848492139339214
 20
2183.5670982425731381
 30
0.0
  0
VERTEX
  5
817
  8
0
 10
3504.0848492139339214
 20
2183.5670982425731381
 30
0.0
  0
VERTEX
  5
818
  8
0
 10
3504.0848492139339214
 20
2174.5670982425731381
 30
0.0
 42
-0.4142135623730951
  0
VERTEX
  5
819
  8
0
 10
3502.0848492139348309
 20
2172.5670982425731381
 30
0.0
  0
VERTEX
  5
81A
  8
0
 10
3481.5848492139339214
 20
2172.5670982425731381
 30
0.0
  0
VERTEX
  5
81B
  8
0
 10
3481.5848492139339214
 20
1917.5670982425729107
 30
0.0
  0
VERTEX
  5
81C
  8
0
 10
3502.0848492139348309
 20
1917.5670982425729107
 30
0.0
 42
-0.4142135623730951
  0
VERTEX
  5
81D
  8
0
 10
3504.0848492139339214
 20
1915.5670982425729107
 30
0.0
  0
VERTEX
  5
81E
  8
0
 10
3504.0848492139339214
 20
1906.5670982425720013
 30
0.0
  0
VERTEX
  5
81F
  8
0
 10
3529.0848492139339214
 20
1906.5670982425720013
 30
0.0
  0
VERTEX
  5
820
  8
0
 10
3529.0848492139339214
 20
1915.5670982425729107
 30
0.0
 42
-0.4142135623730951
  0
VERTEX
  5
821
  8
0
 10
3531.0848492139348309
 20
1917.5670982425729107
 30
0.0
  0
SEQEND
  5
822
  8
0
  0
POLYLINE
  5
823
  8
0
 66
     1
 10
0.0
 20
0.0
 30
0.0
 70
     1
  0
VERTEX
  5
824
  8
0
 10
3501.5848492139339214
 20
2141.5670982425731381
 30
0.0
  0
VERTEX
  5
825
  8
0
 10
3531.5848492139339214
 20
2141.5670982425731381
 30
0.0
 42
-0.4142135623730951
  0
VERTEX
  5
826
  8
0
 10
3533.5848492139339214
 20
2139.5670982425731381
 30
0.0
  0
VERTEX
  5
827
  8
0
 10
3533.5848492139339214
 20
2109.5670982425731381
 30
0.0
 42
-0.4142135623730951
  0
VERTEX
  5
828
  8
0
 10
3531.5848492139339214
 20
2107.5670982425731381
 30
0.0
  0
VERTEX
  5
829
  8
0
 10
3501.5848492139339214
 20
2107.5670982425731381
 30
0.0
 42
-0.4142135623730951
  0
VERTEX
  5
82A
  8
0
 10
3499.5848492139339214
 20
2109.5670982425731381
 30
0.0
  0
VERTEX
  5
82B
  8
0
 10
3499.5848492139339214
 20
2139.5670982425731381
 30
0.0
 42
-0.4142135623730951
  0
SEQEND
  5
82C
  8
0
  0
POLYLINE
  5
844
  8
0
 66
     1
 10
0.0
 20
0.0
 30
0.0
 70
     1
  0
VERTEX
  5
845
  8
0
 10
3776.888455092339882
 20
2118.9645265734288841
 30
0.0
  0
VERTEX
  5
846
  8
0
 10
3886.888455092339882
 20
2118.9645265734288841
 30
0.0
  0
VERTEX
  5
847
  8
0
 10
3886.888455092339882
 20
2188.9645265734288841
 30
0.0
  0
VERTEX
  5
848
  8
0
 10
3776.888455092339882
 20
2188.9645265734288841
 30
0.0
  0
SEQEND
  5
849
  8
0
  0
POLYLINE
  5
84A
  8
0
 66
     1
 10
0.0
 20
0.0
 30
0.0
 70
     1
  0
VERTEX
  5
84B
  8
0
 10
3875.388455092339882
 20
2166.4645265734288841
 30
0.0
  0
VERTEX
  5
84C
  8
0
 10
3880.1884550923400639
 20
2166.4645265734288841
 30
0.0
  0
VERTEX
  5
84D
  8
0
 10
3880.1884550923400639
 20
2141.4645265734288841
 30
0.0
  0
VERTEX
  5
84E
  8
0
 10
3875.388455092339882
 20
2141.4645265734288841
 30
0.0
  0
SEQEND
  5
84F
  8
0
  0
POLYLINE
  5
850
  8
0
 66
     1
 10
0.0
 20
0.0
 30
0.0
 70
     1
  0
VERTEX
  5
851
  8
0
 10
3783.5884550923401548
 20
2166.4645265734288841
 30
0.0
  0
VERTEX
  5
852
  8
0
 10
3788.388455092339882
 20
2166.4645265734288841
 30
0.0
  0
VERTEX
  5
853
  8
0
 10
3788.388455092339882
 20
2141.4645265734288841
 30
0.0
  0
VERTEX
  5
854
  8
0
 10
3783.5884550923401548
 20
2141.4645265734288841
 30
0.0
  0
SEQEND
  5
855
  8
0
  0
CIRCLE
  5
856
  8
0
 10
3831.8884550923389725
 20
2153.9645265734288841
 30
0.0
 40
3.5999999999999979
  0
POLYLINE
  5
86D
  8
0
 66
     1
 10
0.0
 20
0.0
 30
0.0
 70
     1
  0
VERTEX
  5
86E
  8
0
 10
4019.9296468664251734
 20
2117.6984976458188612
 30
0.0
  0
VERTEX
  5
86F
  8
0
 10
4019.9296468664251734
 20
2187.6984976458188612
 30
0.0
  0
VERTEX
  5
870
  8
0
 10
3909.9296468664251734
 20
2187.6984976458188612
 30
0.0
  0
VERTEX
  5
871
  8
0
 10
3909.9296468664251734
 20
2117.6984976458188612
 30
0.0
  0
SEQEND
  5
872
  8
0
  0
POLYLINE
  5
873
  8
0
 66
     1
 10
0.0
 20
0.0
 30
0.0
 70
     1
  0
VERTEX
  5
874
  8
0
 10
4010.0735079468117874
 20
2140.1984976458188612
 30
0.0
  0
VERTEX
  5
875
  8
0
 10
4010.0847301242220055
 20
2165.1984976458188612
 30
0.0
  0
VERTEX
  5
876
  8
0
 10
4014.8847301242208232
 20
2165.1963429877559975
 30
0.0
  0
VERTEX
  5
877
  8
0
 10
4014.8869713197141209
 20
2140.1989292069602016
 30
0.0
  0
SEQEND
  5
878
  8
0
  0
POLYLINE
  5
879
  8
0
 66
     1
 10
0.0
 20
0.0
 30
0.0
 70
     1
  0
VERTEX
  5
87A
  8
0
 10
3918.2802378582309757
 20
2165.1963430382547813
 30
0.0
  0
VERTEX
  5
87B
  8
0
 10
3923.0802380712898412
 20
2165.1984975953200774
 30
0.0
  0
VERTEX
  5
87C
  8
0
 10
3923.0779908830418208
 20
2140.1984976963171903
 30
0.0
  0
VERTEX
  5
87D
  8
0
 10
3918.2779909024338849
 20
2140.198929156460963
 30
0.0
  0
SEQEND
  5
87E
  8
0
  0
POLYLINE
  5
896
  8
0
 66
     1
 10
0.0
 20
0.0
 30
0.0
 70
     1
  0
VERTEX
  5
897
  8
0
 10
4019.9296468664251734
 20
2117.6984976458188612
 30
0.0
  0
VERTEX
  5
898
  8
0
 10
4019.9296468664251734
 20
2187.6984976458188612
 30
0.0
  0
VERTEX
  5
899
  8
0
 10
3909.9296468664251734
 20
2187.6984976458188612
 30
0.0
  0
VERTEX
  5
89A
  8
0
 10
3909.9296468664251734
 20
2117.6984976458188612
 30
0.0
  0
SEQEND
  5
89B
  8
0
  0
POLYLINE
  5
89C
  8
0
 66
     1
 10
0.0
 20
0.0
 30
0.0
 70
     1
  0
VERTEX
  5
89D
  8
0
 10
4010.0735079468117874
 20
2140.1984976458188612
 30
0.0
  0
VERTEX
  5
89E
  8
0
 10
4010.0847301242220055
 20
2165.1984976458188612
 30
0.0
  0
VERTEX
  5
89F
  8
0
 10
4014.8847301242208232
 20
2165.1963429877559975
 30
0.0
  0
VERTEX
  5
8A0
  8
0
 10
4014.8869713197141209
 20
2140.1989292069602016
 30
0.0
  0
SEQEND
  5
8A1
  8
0
  0
POLYLINE
  5
8A2
  8
0
 66
     1
 10
0.0
 20
0.0
 30
0.0
 70
     1
  0
VERTEX
  5
8A3
  8
0
 10
3918.2802378582309757
 20
2165.1963430382547813
 30
0.0
  0
VERTEX
  5
8A4
  8
0
 10
3923.0802380712898412
 20
2165.1984975953200774
 30
0.0
  0
VERTEX
  5
8A5
  8
0
 10
3923.0779908830418208
 20
2140.1984976963171903
 30
0.0
  0
VERTEX
  5
8A6
  8
0
 10
3918.2779909024338849
 20
2140.198929156460963
 30
0.0
  0
SEQEND
  5
8A7
  8
0
  0
CIRCLE
  5
8A8
  8
0
 10
3966.5791146529008984
 20
2152.6984976458188612
 30
0.0
 40
3.5999999999999979
  0
POLYLINE
  5
9FD
  8
0
 66
     1
 10
0.0
 20
0.0
 30
0.0
 70
     1
  0
VERTEX
  5
9FE
  8
0
 10
3836.1054857258850461
 20
1876.7384374596940688
 30
0.0
  0
VERTEX
  5
9FF
  8
0
 10
3676.1054857258850461
 20
1876.7384374596940688
 30
0.0
  0
VERTEX
  5
A00
  8
0
 10
3676.1054857258850461
 20
1696.7384374596940688
 30
0.0
  0
VERTEX
  5
A01
  8
0
 10
3836.1054857258850461
 20
1696.7384374596940688
 30
0.0
  0
SEQEND
  5
A02
  8
0
  0
POLYLINE
  5
A03
  8
0
 66
     1
 10
0.0
 20
0.0
 30
0.0
 70
     1
  0
VERTEX
  5
A04
  8
0
 10
3819.8195828537877787
 20
1759.7381702745510665
 30
0.0
  0
VERTEX
  5
A05
  8
0
 10
3819.8195828537877787
 20
1712.7381702745510665
 30
0.0
  0
VERTEX
  5
A06
  8
0
 10
3775.8195828537868692
 20
1712.7381702745510665
 30
0.0
  0
VERTEX
  5
A07
  8
0
 10
3775.8195828537868692
 20
1759.7381702745510665
 30
0.0
  0
SEQEND
  5
A08
  8
0
  0
POLYLINE
  5
A09
  8
0
 66
     1
 10
0.0
 20
0.0
 30
0.0
 70
     1
  0
VERTEX
  5
A0A
  8
0
 10
3819.0488793193158017
 20
1793.8057397049060455
 30
0.0
  0
VERTEX
  5
A0B
  8
0
 10
3765.0488793193158017
 20
1793.8057397049060455
 30
0.0
  0
VERTEX
  5
A0C
  8
0
 10
3765.0488793193158017
 20
1862.8057397049060455
 30
0.0
  0
VERTEX
  5
A0D
  8
0
 10
3819.0488793193158017
 20
1862.8057397049060455
 30
0.0
  0
SEQEND
  5
A0E
  8
0
  0
POLYLINE
  5
A0F
  8
0
 66
     1
 10
0.0
 20
0.0
 30
0.0
 70
     1
  0
VERTEX
  5
A10
  8
0
 10
3710.6054857258850461
 20
1806.7384374596940688
 30
0.0
  0
VERTEX
  5
A11
  8
0
 10
3756.6054857258850461
 20
1806.7384374596940688
 30
0.0
  0
VERTEX
  5
A12
  8
0
 10
3756.6054857258850461
 20
1766.7384374596940688
 30
0.0
  0
VERTEX
  5
A13
  8
0
 10
3710.6054857258850461
 20
1766.7384374596940688
 30
0.0
  0
SEQEND
  5
A14
  8
0
  0
POLYLINE
  5
A6F
  8
0
 66
     1
 10
0.0
 20
0.0
 30
0.0
 70
     1
  0
VERTEX
  5
A70
  8
0
 10
3493.815387059468776
 20
1878.4602499050170081
 30
0.0
  0
VERTEX
  5
A71
  8
0
 10
3493.815387059468776
 20
1883.4602499050170081
 30
0.0
  0
VERTEX
  5
A72
  8
0
 10
3477.1153870594689579
 20
1883.4602499050170081
 30
0.0
  0
VERTEX
  5
A73
  8
0
 10
3477.1153870594689579
 20
1856.7602499050169627
 30
0.0
  0
VERTEX
  5
A74
  8
0
 10
3482.1153870594689579
 20
1856.7602499050169627
 30
0.0
  0
VERTEX
  5
A75
  8
0
 10
3482.1153870594689579
 20
1841.7602499050169627
 30
0.0
  0
VERTEX
  5
A76
  8
0
 10
3477.1153870594689579
 20
1841.7602499050169627
 30
0.0
  0
VERTEX
  5
A77
  8
0
 10
3477.1153870594689579
 20
1826.3602499050170991
 30
0.0
  0
VERTEX
  5
A78
  8
0
 10
3482.1153870594689579
 20
1826.3602499050170991
 30
0.0
  0
VERTEX
  5
A79
  8
0
 10
3482.1153870594689579
 20
1811.3602499050170991
 30
0.0
  0
VERTEX
  5
A7A
  8
0
 10
3477.1153870594689579
 20
1811.3602499050170991
 30
0.0
  0
VERTEX
  5
A7B
  8
0
 10
3477.1153870594689579
 20
1795.9602499050170081
 30
0.0
  0
VERTEX
  5
A7C
  8
0
 10
3482.1153870594689579
 20
1795.9602499050170081
 30
0.0
  0
VERTEX
  5
A7D
  8
0
 10
3482.1153870594689579
 20
1780.9602499050170081
 30
0.0
  0
VERTEX
  5
A7E
  8
0
 10
3477.1153870594689579
 20
1780.9602499050170081
 30
0.0
  0
VERTEX
  5
A7F
  8
0
 10
3477.1153870594689579
 20
1765.5602499050169172
 30
0.0
  0
VERTEX
  5
A80
  8
0
 10
3482.1153870594689579
 20
1765.5602499050169172
 30
0.0
  0
VERTEX
  5
A81
  8
0
 10
3482.1153870594689579
 20
1750.5602499050169172
 30
0.0
  0
VERTEX
  5
A82
  8
0
 10
3477.1153870594689579
 20
1750.5602499050169172
 30
0.0
  0
VERTEX
  5
A83
  8
0
 10
3477.1153870594689579
 20
1735.1602499050170536
 30
0.0
  0
VERTEX
  5
A84
  8
0
 10
3482.1153870594689579
 20
1735.1602499050170536
 30
0.0
  0
VERTEX
  5
A85
  8
0
 10
3482.1153870594689579
 20
1720.1602499050170536
 30
0.0
  0
VERTEX
  5
A86
  8
0
 10
3477.1153870594689579
 20
1720.1602499050170536
 30
0.0
  0
VERTEX
  5
A87
  8
0
 10
3477.1153870594689579
 20
1693.4602499050170081
 30
0.0
  0
VERTEX
  5
A88
  8
0
 10
3493.815387059468776
 20
1693.4602499050170081
 30
0.0
  0
VERTEX
  5
A89
  8
0
 10
3493.815387059468776
 20
1698.4602499050170081
 30
0.0
  0
VERTEX
  5
A8A
  8
0
 10
3508.815387059468776
 20
1698.4602499050170081
 30
0.0
  0
VERTEX
  5
A8B
  8
0
 10
3508.815387059468776
 20
1693.4602499050170081
 30
0.0
  0
VERTEX
  5
A8C
  8
0
 10
3524.2153870594688669
 20
1693.4602499050170081
 30
0.0
  0
VERTEX
  5
A8D
  8
0
 10
3524.2153870594688669
 20
1698.4602499050170081
 30
0.0
  0
VERTEX
  5
A8E
  8
0
 10
3539.2153870594688669
 20
1698.4602499050170081
 30
0.0
  0
VERTEX
  5
A8F
  8
0
 10
3539.2153870594688669
 20
1693.4602499050170081
 30
0.0
  0
VERTEX
  5
A90
  8
0
 10
3554.6153870594689579
 20
1693.4602499050170081
 30
0.0
  0
VERTEX
  5
A91
  8
0
 10
3554.6153870594689579
 20
1698.4602499050170081
 30
0.0
  0
VERTEX
  5
A92
  8
0
 10
3569.6153870594698674
 20
1698.4602499050170081
 30
0.0
  0
VERTEX
  5
A93
  8
0
 10
3569.6153870594698674
 20
1693.4602499050170081
 30
0.0
  0
VERTEX
  5
A94
  8
0
 10
3585.0153870594690488
 20
1693.4602499050170081
 30
0.0
  0
VERTEX
  5
A95
  8
0
 10
3585.0153870594690488
 20
1698.4602499050170081
 30
0.0
  0
VERTEX
  5
A96
  8
0
 10
3600.0153870594699583
 20
1698.4602499050170081
 30
0.0
  0
VERTEX
  5
A97
  8
0
 10
3600.0153870594699583
 20
1693.4602499050170081
 30
0.0
  0
VERTEX
  5
A98
  8
0
 10
3615.4153870594691398
 20
1693.4602499050170081
 30
0.0
  0
VERTEX
  5
A99
  8
0
 10
3615.4153870594691398
 20
1698.4602499050170081
 30
0.0
  0
VERTEX
  5
A9A
  8
0
 10
3630.4153870594691398
 20
1698.4602499050170081
 30
0.0
  0
VERTEX
  5
A9B
  8
0
 10
3630.4153870594691398
 20
1693.4602499050170081
 30
0.0
  0
VERTEX
  5
A9C
  8
0
 10
3647.1153870594689579
 20
1693.4602499050170081
 30
0.0
  0
VERTEX
  5
A9D
  8
0
 10
3647.1153870594689579
 20
1720.1602499050170536
 30
0.0
  0
VERTEX
  5
A9E
  8
0
 10
3642.1153870594689579
 20
1720.1602499050170536
 30
0.0
  0
VERTEX
  5
A9F
  8
0
 10
3642.1153870594689579
 20
1735.1602499050170536
 30
0.0
  0
VERTEX
  5
AA0
  8
0
 10
3647.1153870594689579
 20
1735.1602499050170536
 30
0.0
  0
VERTEX
  5
AA1
  8
0
 10
3647.1153870594689579
 20
1750.5602499050169172
 30
0.0
  0
VERTEX
  5
AA2
  8
0
 10
3642.1153870594689579
 20
1750.5602499050169172
 30
0.0
  0
VERTEX
  5
AA3
  8
0
 10
3642.1153870594689579
 20
1765.5602499050169172
 30
0.0
  0
VERTEX
  5
AA4
  8
0
 10
3647.1153870594689579
 20
1765.5602499050169172
 30
0.0
  0
VERTEX
  5
AA5
  8
0
 10
3647.1153870594689579
 20
1780.9602499050170081
 30
0.0
  0
VERTEX
  5
AA6
  8
0
 10
3642.1153870594689579
 20
1780.9602499050170081
 30
0.0
  0
VERTEX
  5
AA7
  8
0
 10
3642.1153870594689579
 20
1795.9602499050170081
 30
0.0
  0
VERTEX
  5
AA8
  8
0
 10
3647.1153870594689579
 20
1795.9602499050170081
 30
0.0
  0
VERTEX
  5
AA9
  8
0
 10
3647.1153870594689579
 20
1811.3602499050170991
 30
0.0
  0
VERTEX
  5
AAA
  8
0
 10
3642.1153870594689579
 20
1811.3602499050170991
 30
0.0
  0
VERTEX
  5
AAB
  8
0
 10
3642.1153870594689579
 20
1826.3602499050170991
 30
0.0
  0
VERTEX
  5
AAC
  8
0
 10
3647.1153870594689579
 20
1826.3602499050170991
 30
0.0
  0
VERTEX
  5
AAD
  8
0
 10
3647.1153870594689579
 20
1841.7602499050169627
 30
0.0
  0
VERTEX
  5
AAE
  8
0
 10
3642.1153870594689579
 20
1841.7602499050169627
 30
0.0
  0
VERTEX
  5
AAF
  8
0
 10
3642.1153870594689579
 20
1856.7602499050169627
 30
0.0
  0
VERTEX
  5
AB0
  8
0
 10
3647.1153870594689579
 20
1856.7602499050169627
 30
0.0
  0
VERTEX
  5
AB1
  8
0
 10
3647.1153870594689579
 20
1883.4602499050170081
 30
0.0
  0
VERTEX
  5
AB2
  8
0
 10
3630.4153870594691398
 20
1883.4602499050170081
 30
0.0
  0
VERTEX
  5
AB3
  8
0
 10
3630.4153870594691398
 20
1878.4602499050170081
 30
0.0
  0
VERTEX
  5
AB4
  8
0
 10
3615.4153870594691398
 20
1878.4602499050170081
 30
0.0
  0
VERTEX
  5
AB5
  8
0
 10
3615.4153870594691398
 20
1883.4602499050170081
 30
0.0
  0
VERTEX
  5
AB6
  8
0
 10
3600.0153870594699583
 20
1883.4602499050170081
 30
0.0
  0
VERTEX
  5
AB7
  8
0
 10
3600.0153870594699583
 20
1878.4602499050170081
 30
0.0
  0
VERTEX
  5
AB8
  8
0
 10
3585.0153870594690488
 20
1878.4602499050170081
 30
0.0
  0
VERTEX
  5
AB9
  8
0
 10
3585.0153870594690488
 20
1883.4602499050170081
 30
0.0
  0
VERTEX
  5
ABA
  8
0
 10
3569.6153870594698674
 20
1883.4602499050170081
 30
0.0
  0
VERTEX
  5
ABB
  8
0
 10
3569.6153870594698674
 20
1878.4602499050170081
 30
0.0
  0
VERTEX
  5
ABC
  8
0
 10
3554.6153870594689579
 20
1878.4602499050170081
 30
0.0
  0
VERTEX
  5
ABD
  8
0
 10
3554.6153870594689579
 20
1883.4602499050170081
 30
0.0
  0
VERTEX
  5
ABE
  8
0
 10
3539.2153870594688669
 20
1883.4602499050170081
 30
0.0
  0
VERTEX
  5
ABF
  8
0
 10
3539.2153870594688669
 20
1878.4602499050170081
 30
0.0
  0
VERTEX
  5
AC0
  8
0
 10
3524.2153870594688669
 20
1878.4602499050170081
 30
0.0
  0
VERTEX
  5
AC1
  8
0
 10
3524.2153870594688669
 20
1883.4602499050170081
 30
0.0
  0
VERTEX
  5
AC2
  8
0
 10
3508.815387059468776
 20
1883.4602499050170081
 30
0.0
  0
VERTEX
  5
AC3
  8
0
 10
3508.815387059468776
 20
1878.4602499050170081
 30
0.0
  0
SEQEND
  5
AC4
  8
0
  0
POLYLINE
  5
AFF
  8
0
 66
     1
 10
0.0
 20
0.0
 30
0.0
 70
     1
  0
VERTEX
  5
B00
  8
0
 10
3969.3558393118792083
 20
1814.7278669053180238
 30
0.0
  0
VERTEX
  5
B01
  8
0
 10
3969.3558393118792083
 20
1819.7278669053189333
 30
0.0
  0
VERTEX
  5
B02
  8
0
 10
3984.3558393118792083
 20
1819.7278669053189333
 30
0.0
  0
VERTEX
  5
B03
  8
0
 10
3984.3558393118792083
 20
1814.7278669053180238
 30
0.0
  0
VERTEX
  5
B04
  8
0
 10
3999.7558393118788445
 20
1814.7278669053180238
 30
0.0
  0
VERTEX
  5
B05
  8
0
 10
3999.7558393118788445
 20
1819.7278669053189333
 30
0.0
  0
VERTEX
  5
B06
  8
0
 10
4014.7558393118788445
 20
1819.7278669053189333
 30
0.0
  0
VERTEX
  5
B07
  8
0
 10
4014.7558393118788445
 20
1814.7278669053180238
 30
0.0
  0
VERTEX
  5
B08
  8
0
 10
4030.1558393118789354
 20
1814.7278669053180238
 30
0.0
  0
VERTEX
  5
B09
  8
0
 10
4030.1558393118789354
 20
1819.7278669053189333
 30
0.0
  0
VERTEX
  5
B0A
  8
0
 10
4051.3608053040588857
 20
1819.7278669053189333
 30
0.0
  0
VERTEX
  5
B0B
  8
0
 10
4051.3608053040588857
 20
1841.0278669053188878
 30
0.0
  0
VERTEX
  5
B0C
  8
0
 10
4056.3608053040579762
 20
1841.0278669053188878
 30
0.0
  0
VERTEX
  5
B0D
  8
0
 10
4056.3608053040579762
 20
1856.4278669053189788
 30
0.0
  0
VERTEX
  5
B0E
  8
0
 10
4051.3608053040588857
 20
1856.4278669053189788
 30
0.0
  0
VERTEX
  5
B0F
  8
0
 10
4051.3608053040588857
 20
1877.7278669053189333
 30
0.0
  0
VERTEX
  5
B10
  8
0
 10
4030.1558393118789354
 20
1877.7278669053189333
 30
0.0
  0
VERTEX
  5
B11
  8
0
 10
4030.1558393118789354
 20
1882.7278669053180238
 30
0.0
  0
VERTEX
  5
B12
  8
0
 10
4014.7558393118788445
 20
1882.7278669053180238
 30
0.0
  0
VERTEX
  5
B13
  8
0
 10
4014.7558393118788445
 20
1877.7278669053189333
 30
0.0
  0
VERTEX
  5
B14
  8
0
 10
3999.7558393118788445
 20
1877.7278669053189333
 30
0.0
  0
VERTEX
  5
B15
  8
0
 10
3999.7558393118788445
 20
1882.7278669053180238
 30
0.0
  0
VERTEX
  5
B16
  8
0
 10
3984.3558393118792083
 20
1882.7278669053180238
 30
0.0
  0
VERTEX
  5
B17
  8
0
 10
3984.3558393118792083
 20
1877.7278669053189333
 30
0.0
  0
VERTEX
  5
B18
  8
0
 10
3969.3558393118792083
 20
1877.7278669053189333
 30
0.0
  0
VERTEX
  5
B19
  8
0
 10
3969.3558393118792083
 20
1882.7278669053180238
 30
0.0
  0
VERTEX
  5
B1A
  8
0
 10
3953.9558393118791173
 20
1882.7278669053180238
 30
0.0
  0
VERTEX
  5
B1B
  8
0
 10
3953.9558393118791173
 20
1877.7278669053189333
 30
0.0
  0
VERTEX
  5
B1C
  8
0
 10
3938.9558393118791173
 20
1877.7278669053189333
 30
0.0
  0
VERTEX
  5
B1D
  8
0
 10
3938.9558393118791173
 20
1882.7278669053180238
 30
0.0
  0
VERTEX
  5
B1E
  8
0
 10
3923.5558393118790264
 20
1882.7278669053180238
 30
0.0
  0
VERTEX
  5
B1F
  8
0
 10
3923.5558393118790264
 20
1877.7278669053189333
 30
0.0
  0
VERTEX
  5
B20
  8
0
 10
3908.5558393118790264
 20
1877.7278669053189333
 30
0.0
  0
VERTEX
  5
B21
  8
0
 10
3908.5558393118790264
 20
1882.7278669053180238
 30
0.0
  0
VERTEX
  5
B22
  8
0
 10
3893.1558393118789354
 20
1882.7278669053180238
 30
0.0
  0
VERTEX
  5
B23
  8
0
 10
3893.1558393118789354
 20
1877.7278669053189333
 30
0.0
  0
VERTEX
  5
B24
  8
0
 10
3871.3608053040588857
 20
1877.7278669053189333
 30
0.0
  0
VERTEX
  5
B25
  8
0
 10
3871.3608053040588857
 20
1856.4278669053189788
 30
0.0
  0
VERTEX
  5
B26
  8
0
 10
3866.3608053040588857
 20
1856.4278669053189788
 30
0.0
  0
VERTEX
  5
B27
  8
0
 10
3866.3608053040588857
 20
1841.0278669053188878
 30
0.0
  0
VERTEX
  5
B28
  8
0
 10
3871.3608053040588857
 20
1841.0278669053188878
 30
0.0
  0
VERTEX
  5
B29
  8
0
 10
3871.3608053040588857
 20
1819.7278669053189333
 30
0.0
  0
VERTEX
  5
B2A
  8
0
 10
3893.1558393118789354
 20
1819.7278669053189333
 30
0.0
  0
VERTEX
  5
B2B
  8
0
 10
3893.1558393118789354
 20
1814.7278669053180238
 30
0.0
  0
VERTEX
  5
B2C
  8
0
 10
3908.5558393118790264
 20
1814.7278669053180238
 30
0.0
  0
VERTEX
  5
B2D
  8
0
 10
3908.5558393118790264
 20
1819.7278669053189333
 30
0.0
  0
VERTEX
  5
B2E
  8
0
 10
3923.5558393118790264
 20
1819.7278669053189333
 30
0.0
  0
VERTEX
  5
B2F
  8
0
 10
3923.5558393118790264
 20
1814.7278669053180238
 30
0.0
  0
VERTEX
  5
B30
  8
0
 10
3938.9558393118791173
 20
1814.7278669053180238
 30
0.0
  0
VERTEX
  5
B31
  8
0
 10
3938.9558393118791173
 20
1819.7278669053189333
 30
0.0
  0
VERTEX
  5
B32
  8
0
 10
3953.9558393118791173
 20
1819.7278669053189333
 30
0.0
  0
VERTEX
  5
B33
  8
0
 10
3953.9558393118791173
 20
1814.7278669053180238
 30
0.0
  0
SEQEND
  5
B34
  8
0
  0
POLYLINE
  5
B6F
  8
0
 66
     1
 10
0.0
 20
0.0
 30
0.0
 70
     1
  0
VERTEX
  5
B70
  8
0
 10
3968.2624530172738559
 20
1716.4027722037560579
 30
0.0
  0
VERTEX
  5
B71
  8
0
 10
3968.2624530172738559
 20
1721.4027722037569674
 30
0.0
  0
VERTEX
  5
B72
  8
0
 10
3983.2624530172738559
 20
1721.4027722037569674
 30
0.0
  0
VERTEX
  5
B73
  8
0
 10
3983.2624530172738559
 20
1716.4027722037560579
 30
0.0
  0
VERTEX
  5
B74
  8
0
 10
3998.6624530172739469
 20
1716.4027722037560579
 30
0.0
  0
VERTEX
  5
B75
  8
0
 10
3998.6624530172739469
 20
1721.4027722037569674
 30
0.0
  0
VERTEX
  5
B76
  8
0
 10
4013.6624530172739469
 20
1721.4027722037569674
 30
0.0
  0
VERTEX
  5
B77
  8
0
 10
4013.6624530172739469
 20
1716.4027722037560579
 30
0.0
  0
VERTEX
  5
B78
  8
0
 10
4029.0624530172740378
 20
1716.4027722037560579
 30
0.0
  0
VERTEX
  5
B79
  8
0
 10
4029.0624530172740378
 20
1721.4027722037569674
 30
0.0
  0
VERTEX
  5
B7A
  8
0
 10
4050.2674190094530786
 20
1721.4027722037569674
 30
0.0
  0
VERTEX
  5
B7B
  8
0
 10
4050.2674190094530786
 20
1742.702772203756922
 30
0.0
  0
VERTEX
  5
B7C
  8
0
 10
4055.2674190094539881
 20
1742.702772203756922
 30
0.0
  0
VERTEX
  5
B7D
  8
0
 10
4055.2674190094539881
 20
1758.1027722037570129
 30
0.0
  0
VERTEX
  5
B7E
  8
0
 10
4050.2674190094530786
 20
1758.1027722037570129
 30
0.0
  0
VERTEX
  5
B7F
  8
0
 10
4050.2674190094530786
 20
1779.4027722037569674
 30
0.0
  0
VERTEX
  5
B80
  8
0
 10
4029.0624530172740378
 20
1779.4027722037569674
 30
0.0
  0
VERTEX
  5
B81
  8
0
 10
4029.0624530172740378
 20
1784.4027722037560579
 30
0.0
  0
VERTEX
  5
B82
  8
0
 10
4013.6624530172739469
 20
1784.4027722037560579
 30
0.0
  0
VERTEX
  5
B83
  8
0
 10
4013.6624530172739469
 20
1779.4027722037569674
 30
0.0
  0
VERTEX
  5
B84
  8
0
 10
3998.6624530172739469
 20
1779.4027722037569674
 30
0.0
  0
VERTEX
  5
B85
  8
0
 10
3998.6624530172739469
 20
1784.4027722037560579
 30
0.0
  0
VERTEX
  5
B86
  8
0
 10
3983.2624530172738559
 20
1784.4027722037560579
 30
0.0
  0
VERTEX
  5
B87
  8
0
 10
3983.2624530172738559
 20
1779.4027722037569674
 30
0.0
  0
VERTEX
  5
B88
  8
0
 10
3968.2624530172738559
 20
1779.4027722037569674
 30
0.0
  0
VERTEX
  5
B89
  8
0
 10
3968.2624530172738559
 20
1784.4027722037560579
 30
0.0
  0
VERTEX
  5
B8A
  8
0
 10
3952.8624530172742197
 20
1784.4027722037560579
 30
0.0
  0
VERTEX
  5
B8B
  8
0
 10
3952.8624530172742197
 20
1779.4027722037569674
 30
0.0
  0
VERTEX
  5
B8C
  8
0
 10
3937.8624530172742197
 20
1779.4027722037569674
 30
0.0
  0
VERTEX
  5
B8D
  8
0
 10
3937.8624530172742197
 20
1784.4027722037560579
 30
0.0
  0
VERTEX
  5
B8E
  8
0
 10
3922.4624530172741288
 20
1784.4027722037560579
 30
0.0
  0
VERTEX
  5
B8F
  8
0
 10
3922.4624530172741288
 20
1779.4027722037569674
 30
0.0
  0
VERTEX
  5
B90
  8
0
 10
3907.4624530172741288
 20
1779.4027722037569674
 30
0.0
  0
VERTEX
  5
B91
  8
0
 10
3907.4624530172741288
 20
1784.4027722037560579
 30
0.0
  0
VERTEX
  5
B92
  8
0
 10
3892.0624530172740378
 20
1784.4027722037560579
 30
0.0
  0
VERTEX
  5
B93
  8
0
 10
3892.0624530172740378
 20
1779.4027722037569674
 30
0.0
  0
VERTEX
  5
B94
  8
0
 10
3870.2674190094539881
 20
1779.4027722037569674
 30
0.0
  0
VERTEX
  5
B95
  8
0
 10
3870.2674190094539881
 20
1758.1027722037570129
 30
0.0
  0
VERTEX
  5
B96
  8
0
 10
3865.2674190094539881
 20
1758.1027722037570129
 30
0.0
  0
VERTEX
  5
B97
  8
0
 10
3865.2674190094539881
 20
1742.702772203756922
 30
0.0
  0
VERTEX
  5
B98
  8
0
 10
3870.2674190094539881
 20
1742.702772203756922
 30
0.0
  0
VERTEX
  5
B99
  8
0
 10
3870.2674190094539881
 20
1721.4027722037569674
 30
0.0
  0
VERTEX
  5
B9A
  8
0
 10
3892.0624530172740378
 20
1721.4027722037569674
 30
0.0
  0
VERTEX
  5
B9B
  8
0
 10
3892.0624530172740378
 20
1716.4027722037560579
 30
0.0
  0
VERTEX
  5
B9C
  8
0
 10
3907.4624530172741288
 20
1716.4027722037560579
 30
0.0
  0
VERTEX
  5
B9D
  8
0
 10
3907.4624530172741288
 20
1721.4027722037569674
 30
0.0
  0
VERTEX
  5
B9E
  8
0
 10
3922.4624530172741288
 20
1721.4027722037569674
 30
0.0
  0
VERTEX
  5
B9F
  8
0
 10
3922.4624530172741288
 20
1716.4027722037560579
 30
0.0
  0
VERTEX
  5
BA0
  8
0
 10
3937.8624530172742197
 20
1716.4027722037560579
 30
0.0
  0
VERTEX
  5
BA1
  8
0
 10
3937.8624530172742197
 20
1721.4027722037569674
 30
0.0
  0
VERTEX
  5
BA2
  8
0
 10
3952.8624530172742197
 20
1721.4027722037569674
 30
0.0
  0
VERTEX
  5
BA3
  8
0
 10
3952.8624530172742197
 20
1716.4027722037560579
 30
0.0
  0
SEQEND
  5
BA4
  8
0
  0
POLYLINE
  5
BDF
  8
0
 66
     1
 10
0.0
 20
0.0
 30
0.0
 70
     1
  0
VERTEX
  5
BE0
  8
0
 10
4094.4115507550268376
 20
1862.9828724119211074
 30
0.0
  0
VERTEX
  5
BE1
  8
0
 10
4094.4115507550268376
 20
1847.9828724119211074
 30
0.0
  0
VERTEX
  5
BE2
  8
0
 10
4089.4115507550259281
 20
1847.9828724119211074
 30
0.0
  0
VERTEX
  5
BE3
  8
0
 10
4089.4115507550259281
 20
1826.2828724119210619
 30
0.0
  0
VERTEX
  5
BE4
  8
0
 10
4105.9115507550268376
 20
1826.2828724119210619
 30
0.0
  0
VERTEX
  5
BE5
  8
0
 10
4105.9115507550268376
 20
1821.2828724119210619
 30
0.0
  0
VERTEX
  5
BE6
  8
0
 10
4121.3115507550255643
 20
1821.2828724119210619
 30
0.0
  0
VERTEX
  5
BE7
  8
0
 10
4121.3115507550255643
 20
1826.2828724119210619
 30
0.0
  0
VERTEX
  5
BE8
  8
0
 10
4136.3115507550273833
 20
1826.2828724119210619
 30
0.0
  0
VERTEX
  5
BE9
  8
0
 10
4136.3115507550273833
 20
1821.2828724119210619
 30
0.0
  0
VERTEX
  5
BEA
  8
0
 10
4151.7115507550270195
 20
1821.2828724119210619
 30
0.0
  0
VERTEX
  5
BEB
  8
0
 10
4151.7115507550270195
 20
1826.2828724119210619
 30
0.0
  0
VERTEX
  5
BEC
  8
0
 10
4166.7115507550270195
 20
1826.2828724119210619
 30
0.0
  0
VERTEX
  5
BED
  8
0
 10
4166.7115507550270195
 20
1821.2828724119210619
 30
0.0
  0
VERTEX
  5
BEE
  8
0
 10
4182.1115507550266557
 20
1821.2828724119210619
 30
0.0
  0
VERTEX
  5
BEF
  8
0
 10
4182.1115507550266557
 20
1826.2828724119210619
 30
0.0
  0
VERTEX
  5
BF0
  8
0
 10
4197.1115507550257462
 20
1826.2828724119210619
 30
0.0
  0
VERTEX
  5
BF1
  8
0
 10
4197.1115507550257462
 20
1821.2828724119210619
 30
0.0
  0
VERTEX
  5
BF2
  8
0
 10
4212.5115507550272014
 20
1821.2828724119210619
 30
0.0
  0
VERTEX
  5
BF3
  8
0
 10
4212.5115507550272014
 20
1826.2828724119210619
 30
0.0
  0
VERTEX
  5
BF4
  8
0
 10
4227.5115507550281109
 20
1826.2828724119210619
 30
0.0
  0
VERTEX
  5
BF5
  8
0
 10
4227.5115507550281109
 20
1821.2828724119210619
 30
0.0
  0
VERTEX
  5
BF6
  8
0
 10
4242.9115507550268376
 20
1821.2828724119210619
 30
0.0
  0
VERTEX
  5
BF7
  8
0
 10
4242.9115507550268376
 20
1826.2828724119210619
 30
0.0
  0
VERTEX
  5
BF8
  8
0
 10
4259.4115507550268376
 20
1826.2828724119210619
 30
0.0
  0
VERTEX
  5
BF9
  8
0
 10
4259.4115507550268376
 20
1847.7828724119210619
 30
0.0
  0
VERTEX
  5
BFA
  8
0
 10
4254.4115507550259281
 20
1847.7828724119210619
 30
0.0
  0
VERTEX
  5
BFB
  8
0
 10
4254.4115507550259281
 20
1862.7828724119210619
 30
0.0
  0
VERTEX
  5
BFC
  8
0
 10
4259.4115507550268376
 20
1862.7828724119210619
 30
0.0
  0
VERTEX
  5
BFD
  8
0
 10
4259.4115507550268376
 20
1884.2828724119210619
 30
0.0
  0
VERTEX
  5
BFE
  8
0
 10
4242.9115507550268376
 20
1884.2828724119210619
 30
0.0
  0
VERTEX
  5
BFF
  8
0
 10
4242.9115507550268376
 20
1889.2828724119210619
 30
0.0
  0
VERTEX
  5
C00
  8
0
 10
4227.5115507550281109
 20
1889.2828724119210619
 30
0.0
  0
VERTEX
  5
C01
  8
0
 10
4227.5115507550281109
 20
1884.2828724119210619
 30
0.0
  0
VERTEX
  5
C02
  8
0
 10
4212.5115507550272014
 20
1884.2828724119210619
 30
0.0
  0
VERTEX
  5
C03
  8
0
 10
4212.5115507550272014
 20
1889.2828724119210619
 30
0.0
  0
VERTEX
  5
C04
  8
0
 10
4197.1115507550257462
 20
1889.2828724119210619
 30
0.0
  0
VERTEX
  5
C05
  8
0
 10
4197.1115507550257462
 20
1884.2828724119210619
 30
0.0
  0
VERTEX
  5
C06
  8
0
 10
4182.1115507550266557
 20
1884.2828724119210619
 30
0.0
  0
VERTEX
  5
C07
  8
0
 10
4182.1115507550266557
 20
1889.2828724119210619
 30
0.0
  0
VERTEX
  5
C08
  8
0
 10
4166.7115507550270195
 20
1889.2828724119210619
 30
0.0
  0
VERTEX
  5
C09
  8
0
 10
4166.7115507550270195
 20
1884.2828724119210619
 30
0.0
  0
VERTEX
  5
C0A
  8
0
 10
4151.7115507550270195
 20
1884.2828724119210619
 30
0.0
  0
VERTEX
  5
C0B
  8
0
 10
4151.7115507550270195
 20
1889.2828724119210619
 30
0.0
  0
VERTEX
  5
C0C
  8
0
 10
4136.3115507550273833
 20
1889.2828724119210619
 30
0.0
  0
VERTEX
  5
C0D
  8
0
 10
4136.3115507550273833
 20
1884.2828724119210619
 30
0.0
  0
VERTEX
  5
C0E
  8
0
 10
4121.3115507550255643
 20
1884.2828724119210619
 30
0.0
  0
VERTEX
  5
C0F
  8
0
 10
4121.3115507550255643
 20
1889.2828724119210619
 30
0.0
  0
VERTEX
  5
C10
  8
0
 10
4105.9115507550268376
 20
1889.2828724119210619
 30
0.0
  0
VERTEX
  5
C11
  8
0
 10
4105.9115507550268376
 20
1884.2828724119210619
 30
0.0
  0
VERTEX
  5
C12
  8
0
 10
4089.4115507550259281
 20
1884.2828724119210619
 30
0.0
  0
VERTEX
  5
C13
  8
0
 10
4089.4115507550259281
 20
1862.9828724119211074
 30
0.0
  0
SEQEND
  5
C14
  8
0
  0
POLYLINE
  5
C4F
  8
0
 66
     1
 10
0.0
 20
0.0
 30
0.0
 70
     1
  0
VERTEX
  5
C50
  8
0
 10
4096.5983233442357232
 20
1771.212785234049079
 30
0.0
  0
VERTEX
  5
C51
  8
0
 10
4096.5983233442357232
 20
1756.212785234049079
 30
0.0
  0
VERTEX
  5
C52
  8
0
 10
4091.5983233442370874
 20
1756.212785234049079
 30
0.0
  0
VERTEX
  5
C53
  8
0
 10
4091.5983233442370874
 20
1734.5127852340490335
 30
0.0
  0
VERTEX
  5
C54
  8
0
 10
4108.0983233442357232
 20
1734.5127852340490335
 30
0.0
  0
VERTEX
  5
C55
  8
0
 10
4108.0983233442357232
 20
1729.5127852340490335
 30
0.0
  0
VERTEX
  5
C56
  8
0
 10
4123.4983233442362689
 20
1729.5127852340490335
 30
0.0
  0
VERTEX
  5
C57
  8
0
 10
4123.4983233442362689
 20
1734.512785234049943
 30
0.0
  0
VERTEX
  5
C58
  8
0
 10
4138.4983233442362689
 20
1734.512785234049943
 30
0.0
  0
VERTEX
  5
C59
  8
0
 10
4138.4983233442362689
 20
1729.5127852340490335
 30
0.0
  0
VERTEX
  5
C5A
  8
0
 10
4153.8983233442359051
 20
1729.5127852340490335
 30
0.0
  0
VERTEX
  5
C5B
  8
0
 10
4153.8983233442359051
 20
1734.512785234049943
 30
0.0
  0
VERTEX
  5
C5C
  8
0
 10
4168.8983233442368146
 20
1734.512785234049943
 30
0.0
  0
VERTEX
  5
C5D
  8
0
 10
4168.8983233442368146
 20
1729.5127852340490335
 30
0.0
  0
VERTEX
  5
C5E
  8
0
 10
4184.2983233442364508
 20
1729.5127852340490335
 30
0.0
  0
VERTEX
  5
C5F
  8
0
 10
4184.2983233442364508
 20
1734.512785234049943
 30
0.0
  0
VERTEX
  5
C60
  8
0
 10
4199.2983233442364508
 20
1734.512785234049943
 30
0.0
  0
VERTEX
  5
C61
  8
0
 10
4199.2983233442364508
 20
1729.5127852340490335
 30
0.0
  0
VERTEX
  5
C62
  8
0
 10
4214.698323344236087
 20
1729.5127852340490335
 30
0.0
  0
VERTEX
  5
C63
  8
0
 10
4214.698323344236087
 20
1734.512785234049943
 30
0.0
  0
VERTEX
  5
C64
  8
0
 10
4229.698323344236087
 20
1734.512785234049943
 30
0.0
  0
VERTEX
  5
C65
  8
0
 10
4229.698323344236087
 20
1729.5127852340490335
 30
0.0
  0
VERTEX
  5
C66
  8
0
 10
4245.0983233442357232
 20
1729.5127852340490335
 30
0.0
  0
VERTEX
  5
C67
  8
0
 10
4245.0983233442357232
 20
1734.512785234049943
 30
0.0
  0
VERTEX
  5
C68
  8
0
 10
4261.5983233442357232
 20
1734.512785234049943
 30
0.0
  0
VERTEX
  5
C69
  8
0
 10
4261.5983233442357232
 20
1756.0127852340490335
 30
0.0
  0
VERTEX
  5
C6A
  8
0
 10
4256.5983233442366327
 20
1756.0127852340490335
 30
0.0
  0
VERTEX
  5
C6B
  8
0
 10
4256.5983233442366327
 20
1771.0127852340490335
 30
0.0
  0
VERTEX
  5
C6C
  8
0
 10
4261.5983233442357232
 20
1771.0127852340490335
 30
0.0
  0
VERTEX
  5
C6D
  8
0
 10
4261.5983233442357232
 20
1792.5127852340490335
 30
0.0
  0
VERTEX
  5
C6E
  8
0
 10
4245.0983233442357232
 20
1792.5127852340490335
 30
0.0
  0
VERTEX
  5
C6F
  8
0
 10
4245.0983233442357232
 20
1797.5127852340490335
 30
0.0
  0
VERTEX
  5
C70
  8
0
 10
4229.698323344236087
 20
1797.5127852340490335
 30
0.0
  0
VERTEX
  5
C71
  8
0
 10
4229.698323344236087
 20
1792.5127852340490335
 30
0.0
  0
VERTEX
  5
C72
  8
0
 10
4214.698323344236087
 20
1792.5127852340490335
 30
0.0
  0
VERTEX
  5
C73
  8
0
 10
4214.698323344236087
 20
1797.5127852340490335
 30
0.0
  0
VERTEX
  5
C74
  8
0
 10
4199.2983233442364508
 20
1797.5127852340490335
 30
0.0
  0
VERTEX
  5
C75
  8
0
 10
4199.2983233442364508
 20
1792.5127852340490335
 30
0.0
  0
VERTEX
  5
C76
  8
0
 10
4184.2983233442364508
 20
1792.5127852340490335
 30
0.0
  0
VERTEX
  5
C77
  8
0
 10
4184.2983233442364508
 20
1797.5127852340490335
 30
0.0
  0
VERTEX
  5
C78
  8
0
 10
4168.8983233442368146
 20
1797.5127852340490335
 30
0.0
  0
VERTEX
  5
C79
  8
0
 10
4168.8983233442368146
 20
1792.5127852340490335
 30
0.0
  0
VERTEX
  5
C7A
  8
0
 10
4153.8983233442359051
 20
1792.5127852340490335
 30
0.0
  0
VERTEX
  5
C7B
  8
0
 10
4153.8983233442359051
 20
1797.5127852340490335
 30
0.0
  0
VERTEX
  5
C7C
  8
0
 10
4138.4983233442362689
 20
1797.5127852340490335
 30
0.0
  0
VERTEX
  5
C7D
  8
0
 10
4138.4983233442362689
 20
1792.5127852340490335
 30
0.0
  0
VERTEX
  5
C7E
  8
0
 10
4123.4983233442362689
 20
1792.5127852340490335
 30
0.0
  0
VERTEX
  5
C7F
  8
0
 10
4123.4983233442362689
 20
1797.5127852340490335
 30
0.0
  0
VERTEX
  5
C80
  8
0
 10
4108.0983233442357232
 20
1797.5127852340490335
 30
0.0
  0
VERTEX
  5
C81
  8
0
 10
4108.0983233442357232
 20
1792.5127852340490335
 30
0.0
  0
VERTEX
  5
C82
  8
0
 10
4091.5983233442370874
 20
1792.5127852340490335
 30
0.0
  0
VERTEX
  5
C83
  8
0
 10
4091.5983233442370874
 20
1771.212785234049079
 30
0.0
  0
SEQEND
  5
C84
  8
0
  0
ENDSEC
  0
EOF
